<svg width="29" height="34" viewBox="0 0 29 34" fill="none" xmlns="http://www.w3.org/2000/svg">
<path d="M4.125 33.0903C3.23125 33.0903 2.46587 32.7724 1.82887 32.1365C1.19296 31.4995 0.875 30.7341 0.875 29.8403V7.09033H4.125V29.8403H22V33.0903H4.125ZM10.625 26.5903C9.73125 26.5903 8.96642 26.2724 8.3305 25.6365C7.6935 24.9995 7.375 24.2341 7.375 23.3403V3.84033C7.375 2.94658 7.6935 2.18121 8.3305 1.54421C8.96642 0.90829 9.73125 0.590332 10.625 0.590332H25.25C26.1437 0.590332 26.9091 0.90829 27.5461 1.54421C28.182 2.18121 28.5 2.94658 28.5 3.84033V23.3403C28.5 24.2341 28.182 24.9995 27.5461 25.6365C26.9091 26.2724 26.1437 26.5903 25.25 26.5903H10.625ZM10.625 23.3403H25.25V3.84033H10.625V23.3403ZM10.625 23.3403V3.84033V23.3403Z" fill="white"/>
</svg>
