<svg width="66" height="61" viewBox="0 0 66 61" fill="none" xmlns="http://www.w3.org/2000/svg">
<path d="M64.3198 1.18715C63.6435 0.602176 62.8245 0.215189 61.9499 0.0673195C61.0753 -0.0805502 60.1778 0.0162227 59.3528 0.347352L3.10051 22.8973C2.11386 23.281 1.27812 23.9851 0.721999 24.9012C0.165873 25.8173 -0.0798064 26.8946 0.0227896 27.9672C0.114322 29.0394 0.543916 30.0524 1.24715 30.8543C1.95039 31.6562 2.88936 32.2038 3.92327 32.415L18.2149 35.3076V53.5342C18.2144 54.5203 18.5008 55.4842 19.038 56.3038C19.5751 57.1234 20.3386 57.7616 21.2317 58.1375C21.8227 58.3803 22.4534 58.507 23.0905 58.5108C23.7308 58.5131 24.3652 58.385 24.9565 58.134C25.5477 57.883 26.084 57.5141 26.5339 57.0489L34.4567 48.9931L46.4324 59.7549C47.3166 60.5508 48.4532 60.9928 49.6321 60.9991C50.1504 61.01 50.6665 60.9257 51.1557 60.7502C51.9598 60.4905 52.6836 60.0211 53.2555 59.3883C53.8273 58.7555 54.2274 57.9813 54.4162 57.1422L65.8739 6.07039C66.0742 5.18912 66.0353 4.2688 65.7615 3.4084C65.4877 2.54799 64.9892 1.78005 64.3198 1.18715ZM20.0737 30.611L4.89839 27.5318L47.438 10.456L20.0737 30.611ZM23.0905 53.5342V38.7912L30.7696 45.6962L23.0905 53.5342ZM49.6625 56.0225L24.5532 33.4725L60.7241 6.81687L49.6625 56.0225Z" fill="white"/>
</svg>
