<svg width="72" height="60" viewBox="0 0 72 60" fill="none" xmlns="http://www.w3.org/2000/svg">
<path fill-rule="evenodd" clip-rule="evenodd" d="M32.7595 16.4492C32.7595 7.36454 40.1119 0 49.1815 0C54.5067 0 58.7553 2.51973 61.6017 6.18096C64.6124 5.56283 67.4987 4.44446 70.1409 2.87217C69.1177 6.06104 66.976 8.77071 64.112 10.4997L64.1225 10.5155C66.8413 10.1865 69.4962 9.45428 72 8.34297L71.9948 8.3535C70.2249 11.01 68.0035 13.3509 65.4407 15.2604C65.5772 16.1915 65.6507 17.1226 65.6507 18.0484C65.6507 37.4434 50.8988 60 23.7687 60C15.7689 60.007 7.93628 57.7059 1.20754 53.3719C0.890756 53.1682 0.621388 52.8988 0.417694 52.5817C0.214 52.2646 0.0807406 51.9074 0.0269499 51.5342C-0.0268407 51.1611 9.45038e-05 50.7807 0.10593 50.4188C0.211765 50.057 0.394025 49.7222 0.640357 49.4371C0.874606 49.047 1.21618 48.7328 1.62416 48.5323C2.03213 48.3317 2.4892 48.2532 2.94059 48.3061C7.75111 48.8743 12.5511 48.2851 16.7892 46.4334C14.6989 45.5083 12.8274 44.1508 11.2978 42.45C9.76824 40.7493 8.61503 38.7437 7.91392 36.565C7.78428 36.1597 7.7661 35.7269 7.86129 35.3122C7.95648 34.8975 8.16152 34.5161 8.45484 34.2083C6.72892 32.6911 5.34647 30.8222 4.40001 28.7265C3.45356 26.6309 2.96493 24.3569 2.96685 22.0568V21.878C2.96672 21.3276 3.15802 20.7945 3.50786 20.3701C3.85769 19.9458 4.34419 19.6568 4.8837 19.5529C3.69304 17.2513 3.07337 14.6964 3.07713 12.1042C3.07713 9.64229 3.09289 6.53866 4.82068 3.74014C5.00528 3.44366 5.25312 3.1918 5.5464 3.00262C5.83968 2.81345 6.17114 2.69165 6.51697 2.64598C7.01844 2.48756 7.55584 2.48359 8.05959 2.63459C8.56333 2.78559 9.01021 3.0846 9.34237 3.4929C15.1965 10.7064 23.5696 15.4208 32.7648 16.6807V16.4492H32.7595ZM23.7687 54.7396C19.7506 54.7425 15.7597 54.0796 11.9577 52.7775C16.5308 52.0219 20.8442 50.1382 24.5092 47.2962C24.8933 46.9944 25.1746 46.5808 25.3146 46.1124C25.4546 45.6439 25.4463 45.1436 25.2909 44.68C25.1355 44.2165 24.8406 43.8125 24.4467 43.5237C24.0528 43.2348 23.5793 43.0752 23.0912 43.0668C21.333 43.0351 19.6059 42.5971 18.0446 41.7868C16.4832 40.9765 15.1298 39.8159 14.0899 38.3956C15.0877 38.3167 16.0645 38.1431 17.0098 37.8906C17.5251 37.7526 17.9786 37.444 18.2967 37.0151C18.6147 36.5862 18.7785 36.0621 18.7615 35.5281C18.7444 34.9941 18.5476 34.4815 18.2028 34.0738C17.8581 33.6661 17.3858 33.3872 16.8628 33.2825C14.8648 32.877 13.0112 31.9446 11.4933 30.5814C9.97554 29.2183 8.84862 27.474 8.22902 25.5287C9.27935 25.7812 10.3769 25.9337 11.5008 25.9705C12.0144 25.9878 12.5196 25.837 12.9399 25.5409C13.3602 25.2447 13.6727 24.8194 13.83 24.3294C13.9874 23.8394 13.981 23.3114 13.8118 22.8254C13.6426 22.3393 13.3199 21.9218 12.8925 21.636C11.3254 20.5902 10.0404 19.173 9.15175 17.5101C8.26306 15.8473 7.79817 13.9903 7.79838 12.1042C7.79838 11.2204 7.81413 10.4366 7.86665 9.7212C15.2152 17.233 25.1195 21.6956 35.606 22.2199C36.0109 22.2405 36.4151 22.1669 36.7869 22.0049C37.1587 21.8429 37.488 21.5968 37.749 21.286C38.0099 20.9751 38.1955 20.608 38.2911 20.2133C38.3867 19.8186 38.3898 19.4071 38.3001 19.011C37.9144 17.3685 37.9045 15.6598 38.2713 14.0129C38.6381 12.3661 39.3721 10.8236 40.4182 9.50102C41.4643 8.17843 42.7955 7.10997 44.3122 6.37561C45.8288 5.64124 47.4917 5.25999 49.1763 5.26039C55.6568 5.26039 60.3938 11.273 60.3938 18.0536C60.3938 35.1815 47.3907 54.7396 23.7634 54.7396H23.7687Z" fill="white"/>
</svg>
