<svg width="120" height="120" viewBox="0 0 120 120" fill="none" xmlns="http://www.w3.org/2000/svg">
<g id="Group 10611">
<circle id="Ellipse 204" cx="59.7793" cy="59.7793" r="59.7793" fill="#F95192"/>
<path id="Vector" d="M59.1159 0H60.433C72.313 0.10329 84.0897 3.84755 93.826 10.6389C104.079 17.7142 112.008 28.069 116.14 39.7924C120.943 53.3234 120.685 68.5845 115.339 81.9089C110.845 93.2191 102.788 103.058 92.6122 109.746C82.9275 116.149 71.3058 119.61 59.6841 119.558H59.4775C47.8816 119.532 36.3374 116.02 26.6785 109.565C16.4514 102.773 8.39369 92.7802 3.97744 81.315C-1.05862 68.3521 -1.31688 53.5558 3.22849 40.3605C7.33482 28.4047 15.3409 17.8433 25.7487 10.6647C35.4851 3.87337 47.2618 0.129112 59.1159 0ZM97.4933 29.4376C96.6927 32.433 95.8147 35.3768 94.9624 38.3464C92.6381 39.2243 90.2621 39.8957 87.9894 40.8512C90.2879 41.7291 92.6381 42.5038 94.9624 43.3818C95.9438 46.0415 96.512 48.8561 97.6741 51.4384C98.4747 48.8045 99.2495 46.1448 100.179 43.5625C102.323 42.3747 104.88 41.8582 107.152 40.9028C105.009 39.9215 102.736 39.3535 100.541 38.5013C100.024 38.3464 100.024 37.7266 99.8693 37.3135C99.3528 35.3768 98.733 33.4659 98.2423 31.5034C98.0615 30.8062 97.9582 30.0315 97.4933 29.4376ZM36.3891 37.6492C35.1752 38.3464 35.7434 40.3605 37.0864 40.4122C41.7867 40.4638 46.5128 40.4638 51.239 40.4122C52.9177 40.3089 53.0468 37.6233 51.3681 37.3909C47.0035 37.2618 42.6389 37.3909 38.2744 37.3393C37.6545 37.4168 36.9056 37.236 36.3891 37.6492ZM67.5094 37.5975C66.1664 38.2689 66.7604 40.4638 68.2067 40.438C72.5713 40.4896 76.9359 40.4122 81.3004 40.4638C81.9977 40.4638 82.85 40.5155 83.2891 39.8441C84.1413 38.9403 83.3149 37.3393 82.1269 37.3651C77.8656 37.3135 73.6043 37.3909 69.343 37.3393C68.749 37.4168 68.0517 37.236 67.5094 37.5975ZM42.0191 45.2668C40.6503 45.7832 39.6948 47.1777 39.7723 48.6495C39.7723 52.8844 39.7723 57.1451 39.7723 61.4058C39.669 63.2134 41.1927 64.9693 43.0522 64.9693C44.9891 65.1501 46.7969 63.3425 46.6161 61.4058C46.5903 57.016 46.642 52.6004 46.5903 48.2106C46.5645 46.0157 44.0077 44.4405 42.0191 45.2668ZM75.0764 46.0415C73.6818 46.5063 72.6229 47.9265 72.7004 49.4242C72.7262 53.7882 72.7004 58.178 72.7262 62.542C72.7262 64.0397 73.8884 65.3567 75.3088 65.7182C77.2716 66.2863 79.5443 64.6337 79.5443 62.5679C79.5959 58.5912 79.5185 54.6145 79.5701 50.6379C79.5701 49.5533 79.6734 48.3139 78.9761 47.3842C78.1497 46.1706 76.4968 45.5767 75.0764 46.0415ZM25.6454 54.0464C22.7013 54.5887 20.1703 56.8869 19.3697 59.779C18.4658 62.6711 19.3956 66.0281 21.6682 68.0422C24.225 70.5212 28.4863 70.9085 31.4821 68.9976C34.2713 67.3192 35.8209 63.8848 35.2269 60.6828C34.5812 56.293 29.9584 53.091 25.6454 54.0464ZM90.6495 54.0464C87.4212 54.6145 84.6837 57.3517 84.1413 60.5795C83.5215 63.6524 84.9419 66.9577 87.4987 68.7394C90.3137 70.7794 94.4459 70.6761 97.1576 68.4812C99.766 66.5187 100.928 62.9036 99.9985 59.779C98.9138 55.854 94.6525 53.1943 90.6495 54.0464ZM43.1813 76.3054C41.7609 77.0801 41.6317 79.275 43.0263 80.153C46.8228 83.0193 51.5231 84.4653 56.1976 84.9043C63.0931 85.4982 70.0145 83.7165 76.1352 80.6178C77.3232 80.1271 77.9431 78.5778 77.2716 77.4416C76.7034 76.3054 75.2055 75.8406 74.095 76.4862C69.1881 78.9393 63.7388 80.5661 58.212 80.4112C53.8474 80.3079 49.4054 79.0684 45.8414 76.5378C45.0924 75.9439 43.9819 75.7373 43.1813 76.3054Z" fill="#FDEAF1"/>
</g>
</svg>
