<svg width="24" height="12" viewBox="0 0 24 12" fill="none" xmlns="http://www.w3.org/2000/svg">
<path d="M12.1526 12C12.6839 12 13.0824 11.7612 13.4808 11.5224L23.3092 3.28356C24.1061 2.56714 24.2389 1.49258 23.5748 0.656758C22.7779 -0.0596575 21.5826 -0.179075 20.6529 0.417938C20.6529 0.417938 20.6529 0.417909 20.52 0.537311L12.0198 7.58209L3.51962 0.537311C2.72272 -0.179104 1.39457 -0.179104 0.597671 0.537311C-0.199224 1.25373 -0.199224 2.44777 0.597671 3.16418C0.597671 3.16418 0.597671 3.16415 0.730487 3.28356L10.6917 11.5224C11.0901 11.7612 11.6214 12 12.1526 12Z" fill="white"/>
</svg>
