<svg width="20" height="20" viewBox="0 0 20 20" fill="none" xmlns="http://www.w3.org/2000/svg">
<path d="M10.3368 18C12.3725 18 14.3248 17.1571 15.7643 15.6569C17.2038 14.1566 18.0125 12.1217 18.0125 10C18.0125 7.87827 17.2038 5.84344 15.7643 4.34315C14.3248 2.84285 12.3725 2 10.3368 2C8.30107 2 6.34873 2.84285 4.90926 4.34315C3.46979 5.84344 2.66111 7.87827 2.66111 10C2.66111 12.1217 3.46979 14.1566 4.90926 15.6569C6.34873 17.1571 8.30107 18 10.3368 18ZM10.3368 20C5.03769 20 0.742188 15.523 0.742188 10C0.742188 4.477 5.03769 0 10.3368 0C15.6359 0 19.9314 4.477 19.9314 10C19.9314 15.523 15.6359 20 10.3368 20Z" fill="black"/>
<path fill-rule="evenodd" clip-rule="evenodd" d="M8.13674 9.293C8.04823 9.19749 7.94236 9.12131 7.82531 9.0689C7.70825 9.01649 7.58235 8.9889 7.45495 8.98775C7.32755 8.9866 7.20121 9.0119 7.0833 9.06218C6.96539 9.11246 6.85826 9.18671 6.76817 9.28061C6.67809 9.3745 6.60684 9.48615 6.5586 9.60905C6.51036 9.73194 6.48608 9.86362 6.48719 9.9964C6.4883 10.1292 6.51477 10.2604 6.56505 10.3824C6.61533 10.5044 6.68843 10.6148 6.78007 10.707L8.69899 12.707C8.87891 12.8945 9.12291 12.9998 9.37732 12.9998C9.63174 12.9998 9.87574 12.8945 10.0557 12.707L13.8935 8.707C13.9851 8.61475 14.0582 8.50441 14.1085 8.3824C14.1588 8.2604 14.1853 8.12918 14.1864 7.9964C14.1875 7.86362 14.1632 7.73194 14.115 7.60905C14.0667 7.48615 13.9955 7.3745 13.9054 7.2806C13.8153 7.18671 13.7082 7.11246 13.5903 7.06218C13.4724 7.0119 13.346 6.98659 13.2186 6.98775C13.0912 6.9889 12.9653 7.01649 12.8483 7.0689C12.7312 7.12131 12.6253 7.19749 12.5368 7.293L9.37732 10.586L8.13674 9.293Z" fill="black"/>
</svg>
