<svg width="20" height="20" viewBox="0 0 20 20" fill="none" xmlns="http://www.w3.org/2000/svg">
<path d="M9.73841 19.0681C15.0039 19.0681 19.2725 14.7996 19.2725 9.53406C19.2725 4.26854 15.0039 0 9.73841 0C4.47289 0 0.204346 4.26854 0.204346 9.53406C0.204346 14.7996 4.47289 19.0681 9.73841 19.0681Z" fill="#101010"/>
<path d="M6.44742 3.6582L4.08862 6.017V14.4917H6.91353V16.8505L9.27233 14.4917H11.1509L15.3883 10.2544V3.6582H6.44742ZM14.456 9.77413L12.5775 11.6527H10.6989L9.04634 13.3053V11.6527H6.92766V4.59042H14.456V9.77413Z" fill="white"/>
<path d="M13.0438 6.24316H12.0974V9.06807H13.0438V6.24316Z" fill="white"/>
<path d="M10.4588 6.24316H9.51245V9.06807H10.4588V6.24316Z" fill="white"/>
</svg>
