<svg width="20" height="20" viewBox="0 0 20 20" fill="none" xmlns="http://www.w3.org/2000/svg">
<path d="M19.0681 9.53406C19.0681 4.26561 14.8025 0 9.53406 0C4.26561 0 0 4.26561 0 9.53406C0 14.294 3.48876 18.2348 8.05099 18.9551V12.3025H5.62157V9.54819H8.03686V7.44363C8.03686 5.05659 9.46344 3.72888 11.6386 3.72888C12.6838 3.72888 13.7714 3.9125 13.7714 3.9125V6.25717H12.5708C11.3844 6.25717 11.0171 6.99165 11.0171 7.74025V9.53406H13.6584L13.2347 12.2883H11.0171V18.9551C15.5794 18.2489 19.0681 14.294 19.0681 9.53406Z" fill="#101010"/>
<path d="M13.2345 12.3025L13.6582 9.54823H11.0169V7.75441C11.0169 7.00581 11.3841 6.27134 12.5706 6.27134H13.7712V3.92666C13.7712 3.92666 12.6836 3.74304 11.6384 3.74304C9.46321 3.74304 8.03663 5.05663 8.03663 7.4578V9.56235H5.62134V12.3025H8.03663V18.9693C8.51687 19.0399 9.02535 19.0823 9.51971 19.0823C10.0141 19.0823 10.5226 19.0399 11.0028 18.9693V12.3025H13.2345Z" fill="white"/>
</svg>
