<svg width="27" height="27" viewBox="0 0 27 27" fill="none" xmlns="http://www.w3.org/2000/svg">
<path d="M13.3408 26.7463C20.7088 26.7463 26.6816 20.7735 26.6816 13.4055C26.6816 6.03759 20.7088 0.0646973 13.3408 0.0646973C5.97289 0.0646973 0 6.03759 0 13.4055C0 20.7735 5.97289 26.7463 13.3408 26.7463Z" fill="#101010"/>
<path d="M13.3407 6.52758C15.574 6.52758 15.8507 6.52758 16.7401 6.56711C17.5505 6.60664 18.005 6.74499 18.3015 6.86357C18.6968 7.02169 18.9735 7.19956 19.2699 7.49602C19.5664 7.79249 19.7443 8.06918 19.9024 8.46447C20.021 8.76093 20.1593 9.19574 20.1989 10.0258C20.2384 10.9152 20.2384 11.1722 20.2384 13.4253C20.2384 15.6586 20.2384 15.9353 20.1989 16.8247C20.1593 17.6351 20.021 18.0896 19.9024 18.3861C19.7443 18.7814 19.5664 19.0581 19.2699 19.3545C18.9735 19.651 18.6968 19.8289 18.3015 19.987C18.005 20.1056 17.5702 20.2439 16.7401 20.2835C15.8507 20.323 15.5938 20.323 13.3407 20.323C11.1073 20.323 10.8306 20.323 9.94125 20.2835C9.13092 20.2439 8.67635 20.1056 8.37989 19.987C7.98461 19.8289 7.7079 19.651 7.41144 19.3545C7.11498 19.0581 6.9371 18.7814 6.77898 18.3861C6.6604 18.0896 6.52205 17.6548 6.48252 16.8247C6.44299 15.9353 6.44299 15.6784 6.44299 13.4253C6.44299 11.1919 6.44299 10.9152 6.48252 10.0258C6.52205 9.21551 6.6604 8.76093 6.77898 8.46447C6.9371 8.06918 7.11498 7.79249 7.41144 7.49602C7.7079 7.19956 7.98461 7.02169 8.37989 6.86357C8.67635 6.74499 9.11116 6.60664 9.94125 6.56711C10.8306 6.52758 11.1073 6.52758 13.3407 6.52758ZM13.3407 5.00574C11.0678 5.00574 10.7714 5.00574 9.88196 5.06503C8.99257 5.10456 8.37989 5.24291 7.84625 5.46031C7.29286 5.67772 6.81852 5.95442 6.36394 6.42876C5.8896 6.9031 5.6129 7.35768 5.39549 7.91107C5.17809 8.44471 5.03974 9.05739 5.00021 9.94678C4.96068 10.8362 4.94092 11.1326 4.94092 13.4055C4.94092 15.6784 4.94092 15.9749 5.00021 16.8642C5.03974 17.7536 5.17809 18.3663 5.39549 18.9C5.6129 19.4534 5.8896 19.9277 6.36394 20.3823C6.83828 20.8566 7.29286 21.1333 7.84625 21.3507C8.37989 21.5681 8.99257 21.7065 9.88196 21.746C10.7714 21.7855 11.0678 21.8053 13.3407 21.8053C15.6136 21.8053 15.91 21.8053 16.7994 21.746C17.6888 21.7065 18.3015 21.5681 18.8351 21.3507C19.3885 21.1333 19.8629 20.8566 20.3174 20.3823C20.7918 19.9079 21.0685 19.4534 21.2859 18.9C21.5033 18.3663 21.6417 17.7536 21.6812 16.8642C21.7207 15.9749 21.7405 15.6784 21.7405 13.4055C21.7405 11.1326 21.7405 10.8362 21.6812 9.94678C21.6417 9.05739 21.5033 8.44471 21.2859 7.91107C21.0685 7.35768 20.7918 6.88334 20.3174 6.42876C19.8431 5.95442 19.3885 5.67772 18.8351 5.46031C18.3015 5.24291 17.6888 5.10456 16.7994 5.06503C15.91 5.0255 15.6136 5.00574 13.3407 5.00574Z" fill="white"/>
<path d="M13.3408 9.0968C10.9493 9.0968 9.03223 11.0337 9.03223 13.4054C9.03223 15.7969 10.9691 17.714 13.3408 17.714C15.7323 17.714 17.6494 15.7771 17.6494 13.4054C17.6494 11.0337 15.7323 9.0968 13.3408 9.0968ZM13.3408 16.2119C11.7992 16.2119 10.5343 14.9668 10.5343 13.4054C10.5343 11.844 11.7794 10.5989 13.3408 10.5989C14.9022 10.5989 16.1473 11.844 16.1473 13.4054C16.1473 14.9668 14.8824 16.2119 13.3408 16.2119Z" fill="white"/>
<path d="M17.8273 9.94673C18.384 9.94673 18.8353 9.49545 18.8353 8.93876C18.8353 8.38207 18.384 7.93079 17.8273 7.93079C17.2706 7.93079 16.8193 8.38207 16.8193 8.93876C16.8193 9.49545 17.2706 9.94673 17.8273 9.94673Z" fill="white"/>
</svg>
