<svg width="34" height="33" viewBox="0 0 34 33" fill="none" xmlns="http://www.w3.org/2000/svg">
<path d="M12.185 0.899902C15.5496 0.899902 18.5961 2.26398 20.8011 4.46901C23.0059 6.67404 24.3701 9.72051 24.3701 13.0851C24.3701 16.4497 23.0059 19.496 20.8009 21.701C18.5961 23.906 15.5496 25.2701 12.185 25.2701C8.82044 25.2701 5.77414 23.906 3.56911 21.701C1.36408 19.496 0 16.4497 0 13.0851C0 9.72051 1.36408 6.67404 3.56911 4.46901C5.77398 2.26398 8.82044 0.899902 12.185 0.899902ZM18.3483 6.92185C16.7711 5.3447 14.592 4.36921 12.185 4.36921C9.77808 4.36921 7.59876 5.34487 6.02194 6.92185C4.44478 8.49901 3.4693 10.6781 3.4693 13.0851C3.4693 15.492 4.44478 17.671 6.02194 19.2482C7.59909 20.8253 9.77808 21.8008 12.185 21.8008C14.592 21.8008 16.7713 20.8251 18.3481 19.2482C19.9252 17.671 20.9007 15.492 20.9007 13.0851C20.9007 10.6781 19.9251 8.49884 18.3483 6.92185Z" fill="white"/>
<path d="M33.4021 29.1915C34.1242 29.8163 34.203 30.9086 33.5783 31.6308C32.9535 32.3529 31.8611 32.4317 31.139 31.807L18.9507 21.2343C18.2286 20.6096 18.1498 19.5172 18.7745 18.7951C19.3993 18.073 20.4917 17.9941 21.2138 18.6189L33.4021 29.1915Z" fill="white"/>
</svg>
