<svg width="27" height="28" viewBox="0 0 27 28" fill="none" xmlns="http://www.w3.org/2000/svg">
<path d="M13.3408 27.1096C20.7088 27.1096 26.6817 21.1367 26.6817 13.7688C26.6817 6.40087 20.7088 0.427979 13.3408 0.427979C5.9729 0.427979 0 6.40087 0 13.7688C0 21.1367 5.9729 27.1096 13.3408 27.1096Z" fill="#101010"/>
<path fill-rule="evenodd" clip-rule="evenodd" d="M13.3408 3.8866C7.88593 3.8866 3.45874 8.31377 3.45874 13.7687C3.45874 19.2236 7.88593 23.6508 13.3408 23.6508C18.776 23.6508 23.2229 19.2236 23.2229 13.7687C23.2229 8.31377 18.7957 3.8866 13.3408 3.8866ZM19.8828 8.45213C21.0686 9.89491 21.7604 11.7132 21.7999 13.7094C21.5232 13.6501 18.7364 13.0967 15.9299 13.4327C15.8706 13.2944 15.8113 13.1362 15.7521 12.9979C15.5742 12.5828 15.3963 12.1678 15.1986 11.7725C18.2819 10.5076 19.6851 8.6893 19.8828 8.45213ZM13.3408 5.34915C15.4754 5.34915 17.4518 6.15948 18.9341 7.46392C18.776 7.68133 17.5111 9.38104 14.5069 10.5076C13.1234 7.95802 11.5818 5.88278 11.3644 5.56655C11.9969 5.4282 12.6689 5.34915 13.3408 5.34915ZM9.7635 6.13972C9.98091 6.43618 11.483 8.53119 12.8863 11.0215C8.93342 12.069 5.45492 12.0492 5.0794 12.0492C5.6328 9.44034 7.3918 7.26628 9.7635 6.13972ZM4.90152 13.7885C4.90152 13.7094 4.90152 13.6106 4.90152 13.5315C5.25728 13.5513 9.36823 13.5908 13.578 12.3259C13.8152 12.8002 14.0523 13.2746 14.2697 13.7687C14.1709 13.8082 14.0523 13.828 13.9338 13.8675C9.58564 15.2708 7.27322 19.105 7.07558 19.4212C5.73162 17.9389 4.90152 15.9428 4.90152 13.7885ZM13.3408 22.2278C11.3842 22.2278 9.58563 21.5558 8.16261 20.449C8.32072 20.1328 10.0204 16.8321 14.7836 15.172C14.8034 15.1522 14.8231 15.1522 14.8429 15.1522C16.0288 18.2354 16.5229 20.8047 16.6414 21.5558C15.6335 21.9906 14.5069 22.2278 13.3408 22.2278ZM18.0447 20.7652C17.9656 20.2513 17.5111 17.7808 16.4043 14.7569C19.0527 14.3418 21.3651 15.0336 21.6615 15.1127C21.3058 17.4646 19.9421 19.5003 18.0447 20.7652Z" fill="white"/>
</svg>
