<svg width="20" height="20" viewBox="0 0 20 20" fill="none" xmlns="http://www.w3.org/2000/svg">
<path d="M9.67029 19.0681C14.9358 19.0681 19.2044 14.7996 19.2044 9.53405C19.2044 4.26854 14.9358 0 9.67029 0C4.40478 0 0.13623 4.26854 0.13623 9.53405C0.13623 14.7996 4.40478 19.0681 9.67029 19.0681Z" fill="#101010"/>
<path d="M14.3172 5.64988C14.2748 5.53689 14.2324 5.50864 14.1759 5.49452C14.0206 5.43802 13.7804 5.52278 13.7804 5.52278C13.7804 5.52278 4.86787 8.72904 4.35938 9.08215C4.24639 9.15278 4.21814 9.20927 4.18989 9.25164C4.10514 9.50588 4.3735 9.61889 4.3735 9.61889L6.67581 10.3675C6.67581 10.3675 6.76055 10.3816 6.7888 10.3675C7.31141 10.0426 12.0431 7.04822 12.3115 6.94935C12.3539 6.93523 12.3821 6.94934 12.3821 6.97759C12.2691 7.35896 8.15888 11.0172 8.15888 11.0172C8.15888 11.0172 8.14476 11.0313 8.13063 11.0596L7.91876 13.3336C7.91876 13.3336 7.83402 14.0257 8.52612 13.3336C9.02048 12.8393 9.50071 12.4297 9.72671 12.2319C10.5177 12.7828 11.3652 13.376 11.7324 13.7009C11.916 13.8562 12.0714 13.8845 12.1985 13.8845C12.5516 13.8704 12.6505 13.489 12.6505 13.489C12.6505 13.489 14.2748 6.94934 14.3313 6.07362C14.3313 5.98887 14.3454 5.93239 14.3454 5.87589C14.3313 5.77702 14.3313 5.69226 14.3172 5.64988Z" fill="white"/>
</svg>
