<svg width="55" height="54" viewBox="0 0 55 54" fill="none" xmlns="http://www.w3.org/2000/svg">
<path d="M27.5 48.6375C22.3946 48.6375 17.4983 46.6601 13.8882 43.1403C10.2781 39.6205 8.25 34.8467 8.25 29.8689C8.25 24.8912 10.2781 20.1173 13.8882 16.5975C17.4983 13.0777 22.3946 11.1003 27.5 11.1003C32.6054 11.1003 37.5017 13.0777 41.1118 16.5975C44.7219 20.1173 46.75 24.8912 46.75 29.8689C46.75 34.8467 44.7219 39.6205 41.1118 43.1403C37.5017 46.6601 32.6054 48.6375 27.5 48.6375ZM27.5 5.73783C20.9359 5.73783 14.6406 8.28021 9.99911 12.8057C5.35758 17.3311 2.75 23.469 2.75 29.8689C2.75 36.2689 5.35758 42.4067 9.99911 46.9322C14.6406 51.4576 20.9359 54 27.5 54C34.0641 54 40.3594 51.4576 45.0009 46.9322C49.6424 42.4067 52.25 36.2689 52.25 29.8689C52.25 23.469 49.6424 17.3311 45.0009 12.8057C40.3594 8.28021 34.0641 5.73783 27.5 5.73783ZM28.875 16.4628H24.75V32.5502L37.8125 40.1917L39.875 36.8937L28.875 30.5392V16.4628ZM16.17 4.10228L12.65 0L0 10.3227L3.5475 14.425L16.17 4.10228ZM55 10.3496L42.35 0L38.8025 4.10228L51.4525 14.4518L55 10.3496Z" fill="var(--color-primary)"/>
</svg>
