<svg width="20" height="20" viewBox="0 0 20 20" fill="none" xmlns="http://www.w3.org/2000/svg">
<path d="M9.60219 19.0681C14.8677 19.0681 19.1362 14.7996 19.1362 9.53406C19.1362 4.26854 14.8677 0 9.60219 0C4.33667 0 0.0681152 4.26854 0.0681152 9.53406C0.0681152 14.7996 4.33667 19.0681 9.60219 19.0681Z" fill="#101010"/>
<path d="M7.68136 15.0284C12.3425 15.0284 14.8849 11.1724 14.8849 7.82491C14.8849 7.71191 14.8849 7.61304 14.8708 7.50004C15.3651 7.14693 15.7888 6.69494 16.1278 6.18646C15.6759 6.3842 15.1815 6.52545 14.673 6.58195C15.1956 6.27121 15.5911 5.77685 15.7888 5.18362C15.2945 5.48023 14.7578 5.67798 14.1786 5.8051C13.7125 5.31074 13.0628 5 12.3283 5C10.93 5 9.80004 6.12996 9.80004 7.52829C9.80004 7.72604 9.82829 7.92378 9.87066 8.1074C7.76611 8.00852 5.90167 6.99156 4.65871 5.46611C4.44684 5.83335 4.31973 6.27121 4.31973 6.73732C4.31973 7.61304 4.77171 8.38989 5.44969 8.84187C5.04008 8.82775 4.64459 8.71475 4.3056 8.53113C4.3056 8.54526 4.3056 8.54526 4.3056 8.55938C4.3056 9.78822 5.18132 10.8052 6.33953 11.0453C6.12766 11.1018 5.90167 11.1301 5.67568 11.1301C5.50619 11.1301 5.35081 11.1159 5.19544 11.0877C5.52031 12.0905 6.45254 12.825 7.55425 12.8391C6.69265 13.5171 5.59093 13.9267 4.40447 13.9267C4.20673 13.9267 3.99486 13.9126 3.79712 13.8985C4.91296 14.6188 6.25478 15.0284 7.68136 15.0284Z" fill="white"/>
</svg>
