<svg width="360" height="71" viewBox="0 0 360 71" fill="none" xmlns="http://www.w3.org/2000/svg">
<path fill-rule="evenodd" clip-rule="evenodd" d="M113.69 24.0242C112.16 24.0242 110.702 24.3262 109.341 24.9182C107.968 25.5102 106.777 26.3438 105.745 27.4069C103.703 29.5211 102.683 32.0461 102.683 35.006C102.683 37.4343 103.412 39.621 104.858 41.5661C105.89 42.9434 107.178 44.0307 108.721 44.816C110.264 45.6013 111.929 45.9879 113.69 45.9879C115.148 45.9879 116.533 45.71 117.858 45.1664C119.182 44.6227 120.348 43.8737 121.357 42.9072L121.393 42.8467C121.879 42.3876 122.122 41.8319 122.122 41.1795C122.122 40.5271 121.891 39.9473 121.43 39.5003C120.968 39.0533 120.409 38.8237 119.753 38.8237C119.097 38.8237 118.587 39.0291 118.149 39.4519C118.125 39.4761 118.113 39.4882 118.089 39.5003C118.064 39.5003 118.052 39.5244 118.028 39.5486C116.825 40.6963 115.391 41.2762 113.703 41.2762C111.856 41.2762 110.301 40.5996 109.061 39.2345C107.968 38.0263 107.421 36.6128 107.421 34.9939C107.421 33.5321 107.871 32.2273 108.782 31.0675C109.365 30.3306 110.094 29.7627 110.957 29.3399C111.819 28.9171 112.731 28.7117 113.703 28.7117C114.772 28.7117 115.78 28.9654 116.703 29.4608C116.667 29.2675 116.643 29.0741 116.643 28.8687C116.643 28.47 116.716 28.0956 116.861 27.7331C117.092 27.1412 117.469 26.67 118.003 26.2955C118.514 25.9572 119.06 25.7881 119.68 25.7639C117.87 24.592 115.877 24.0121 113.715 24.0121L113.69 24.0242ZM119.717 26.5008H119.753C120.506 26.5008 121.126 26.7908 121.588 27.3827C121.624 27.419 121.673 27.4915 121.733 27.5761C121.782 27.6606 121.818 27.709 121.843 27.7331C122.037 28.0835 122.122 28.47 122.122 28.8687C122.122 29.5211 121.891 30.0768 121.43 30.5359C120.968 30.995 120.409 31.2246 119.753 31.2246C119.097 31.2246 118.575 31.0071 118.113 30.5601C117.943 30.391 117.809 30.2219 117.7 30.0527C117.469 29.7024 117.347 29.3037 117.347 28.8567C117.347 28.603 117.384 28.3493 117.469 28.1077C117.639 27.6002 117.943 27.2136 118.38 26.9116C118.781 26.6337 119.218 26.5008 119.704 26.5008H119.717ZM124.856 32.7468C125.147 32.469 125.488 32.2635 125.864 32.1186C126.217 31.9736 126.593 31.9011 126.97 31.9011C127.456 31.9011 127.918 32.022 128.355 32.2515C128.865 32.5052 129.266 32.8556 129.582 33.3147C129.959 31.9737 130.712 30.8742 131.818 30.0164C132.935 29.1587 134.199 28.7358 135.608 28.7358C137.358 28.7358 138.84 29.352 140.055 30.5722C141.27 31.7924 141.89 33.2784 141.89 35.0181C141.89 36.7578 141.282 38.2317 140.055 39.464C138.84 40.6842 137.346 41.3004 135.608 41.3004C134.199 41.3004 132.935 40.8775 131.805 40.0319C130.675 39.1862 129.922 38.0867 129.546 36.7215C129.315 37.0719 129.023 37.386 128.659 37.6276C128.136 37.9417 127.565 38.0988 126.958 38.0988C126.52 38.0988 126.083 38.0143 125.67 37.8451C125.354 37.7002 125.087 37.5068 124.844 37.2773C125.366 39.8144 126.642 41.8923 128.659 43.5354C130.675 45.1784 132.996 46 135.596 46C137.601 46 139.435 45.5046 141.136 44.526C142.825 43.5475 144.162 42.2064 145.146 40.5272C146.13 38.8479 146.616 37.0115 146.616 35.0181C146.616 33.0247 146.13 31.2004 145.146 29.5091C144.162 27.8298 142.837 26.4887 141.136 25.5102C139.447 24.5316 137.601 24.0362 135.596 24.0362C133.008 24.0362 130.7 24.8578 128.683 26.5008C126.666 28.1439 125.378 30.2339 124.832 32.7589L124.856 32.7468ZM126.97 32.6501C127.687 32.6501 128.282 32.916 128.768 33.4355C129.023 33.7254 129.193 34.0757 129.278 34.4744C129.315 34.6436 129.339 34.8248 129.339 35.006C129.339 35.2114 129.315 35.4289 129.278 35.6343C129.193 35.9484 129.035 36.2383 128.804 36.5162C128.343 37.084 127.735 37.3619 126.97 37.3619C126.204 37.3619 125.573 37.0719 125.111 36.48C124.917 36.2504 124.783 35.9846 124.698 35.6947C124.637 35.4893 124.601 35.2718 124.601 35.0302C124.601 34.7765 124.637 34.5348 124.698 34.3053C124.807 33.9549 124.977 33.6408 125.232 33.3992C125.694 32.8918 126.277 32.6501 126.97 32.6501ZM151.488 24.0242C150.771 24.0242 150.188 24.302 149.726 24.8457C149.349 25.2806 149.155 25.788 149.155 26.3559V38.2801C149.155 38.8237 149.337 39.307 149.69 39.7177C150.151 40.2976 150.759 40.5996 151.524 40.5996C152.095 40.5996 152.593 40.4184 153.043 40.0681C153.59 39.6331 153.869 39.0654 153.893 38.3767V26.3921C153.893 25.788 153.699 25.2564 153.298 24.8215C152.836 24.302 152.253 24.0362 151.561 24.0362H151.5L151.488 24.0242ZM149.155 40.213C149.434 40.5271 149.738 40.7808 150.103 40.9621C150.54 41.1674 151.014 41.2762 151.524 41.2762H166.262C166.833 41.2762 167.319 41.4695 167.744 41.844C168.291 42.3031 168.57 42.8951 168.594 43.5958V43.6562C168.594 44.3449 168.327 44.9248 167.805 45.3838C167.367 45.7825 166.833 45.9758 166.225 45.9758H151.512C150.856 45.9758 150.297 45.7463 149.811 45.2872C149.374 44.8281 149.143 44.2723 149.143 43.62V40.2009L149.155 40.213ZM169.129 32.7468C169.421 32.469 169.761 32.2635 170.137 32.1186C170.49 31.9736 170.866 31.9011 171.243 31.9011C171.729 31.9011 172.191 32.022 172.628 32.2515C173.138 32.5052 173.539 32.8556 173.855 33.3147C174.232 31.9737 174.985 30.8742 176.091 30.0164C177.208 29.1587 178.472 28.7358 179.881 28.7358C181.631 28.7358 183.113 29.352 184.328 30.5722C185.543 31.7924 186.163 33.2784 186.163 35.0181C186.163 36.7578 185.555 38.2317 184.328 39.464C183.101 40.6963 181.619 41.3004 179.881 41.3004C178.472 41.3004 177.208 40.8775 176.078 40.0319C174.949 39.1862 174.195 38.0867 173.819 36.7215C173.588 37.0719 173.296 37.386 172.932 37.6276C172.409 37.9417 171.838 38.0988 171.231 38.0988C170.793 38.0988 170.356 38.0143 169.943 37.8451C169.627 37.7002 169.36 37.5068 169.117 37.2773C169.639 39.8144 170.915 41.8923 172.932 43.5354C174.949 45.1784 177.269 46 179.869 46C181.874 46 183.708 45.5046 185.409 44.526C187.098 43.5475 188.435 42.2064 189.419 40.5272C190.391 38.8479 190.889 37.0115 190.889 35.0181C190.889 33.0247 190.403 31.2004 189.419 29.5091C188.435 27.8298 187.11 26.4887 185.409 25.5102C183.721 24.5316 181.874 24.0362 179.869 24.0362C177.281 24.0362 174.973 24.8578 172.956 26.5008C170.939 28.1439 169.651 30.2339 169.105 32.7589L169.129 32.7468ZM171.243 32.6501C171.96 32.6501 172.555 32.916 173.041 33.4355C173.296 33.7254 173.466 34.0757 173.551 34.4744C173.588 34.6436 173.612 34.8248 173.612 35.006C173.612 35.2114 173.588 35.4289 173.551 35.6343C173.466 35.9484 173.308 36.2383 173.078 36.5162C172.616 37.084 172.008 37.3619 171.243 37.3619C170.478 37.3619 169.846 37.0719 169.384 36.48C169.19 36.2504 169.056 35.9846 168.971 35.6947C168.91 35.4893 168.874 35.2718 168.874 35.0302C168.874 34.7765 168.91 34.5348 168.971 34.3053C169.08 33.9549 169.25 33.6408 169.506 33.3992C169.967 32.8918 170.55 32.6501 171.243 32.6501ZM195.797 24.0242C195.165 24.0242 194.619 24.2416 194.157 24.6886C193.671 25.1477 193.428 25.7155 193.428 26.38V32.8193C193.683 32.5294 193.987 32.2998 194.339 32.1307C194.777 31.9253 195.25 31.8165 195.761 31.8165H195.822C196.308 31.8165 196.769 31.9253 197.207 32.1307C197.559 32.2998 197.875 32.5294 198.154 32.8193C198.215 32.8797 198.276 32.9402 198.312 33.0126L208.627 45.0939C209.089 45.698 209.708 46 210.486 46C211.179 46 211.774 45.7342 212.248 45.2147C212.649 44.7798 212.843 44.2482 212.843 43.6441V37.2411C212.564 37.519 212.26 37.7364 211.895 37.9055C211.458 38.1109 210.984 38.2197 210.474 38.2197C209.891 38.2197 209.332 38.0867 208.834 37.8089C208.481 37.6035 208.165 37.3377 207.923 37.0236L197.535 24.8215C197.304 24.5678 197.024 24.3745 196.708 24.2295C196.417 24.1087 196.101 24.0362 195.761 24.0362L195.797 24.0242ZM210.498 24.0242C211.069 24.0242 211.567 24.2175 212.017 24.592C212.564 25.0511 212.843 25.643 212.867 26.38V35.4772C212.843 36.1296 212.564 36.6612 212.017 37.0719C211.58 37.386 211.069 37.5431 210.498 37.5431C209.672 37.5431 209.04 37.2531 208.579 36.6611C208.287 36.3108 208.141 35.9121 208.141 35.4651V26.368C208.141 25.7035 208.384 25.1356 208.87 24.6765C209.308 24.2416 209.854 24.0121 210.51 24.0121L210.498 24.0242ZM195.761 32.469H195.822C196.222 32.469 196.587 32.5535 196.927 32.7226C197.729 33.1213 198.142 33.7375 198.154 34.5711V43.6441C198.154 44.2965 197.936 44.8402 197.486 45.2751C197.024 45.7583 196.453 46 195.785 46C195.007 46 194.376 45.6859 193.89 45.0576C193.574 44.6348 193.416 44.1636 193.416 43.6441V34.5711C193.44 33.9912 193.683 33.4838 194.145 33.0609C194.582 32.6623 195.129 32.469 195.749 32.469H195.761ZM217.764 24.0242H217.703C216.986 24.0242 216.403 24.302 215.941 24.8457C215.565 25.2806 215.37 25.788 215.37 26.3559V33.0126C216.002 32.2999 216.792 31.9495 217.739 31.9495C218.687 31.9495 219.501 32.3119 220.109 33.0489V26.3921C220.109 25.788 219.914 25.2564 219.513 24.8215C219.052 24.302 218.468 24.0362 217.776 24.0362L217.764 24.0242ZM217.727 32.6501C218.31 32.6501 218.845 32.8435 219.307 33.218C219.623 33.508 219.841 33.8583 219.975 34.257C220.06 34.4865 220.096 34.7282 220.096 34.9819C220.096 35.3202 220.036 35.6463 219.902 35.9846C219.756 36.2987 219.55 36.5766 219.27 36.8061C218.833 37.1806 218.31 37.374 217.727 37.374C217.266 37.374 216.84 37.2531 216.464 37.0236C216.087 36.794 215.795 36.4799 215.613 36.0813C215.443 35.7671 215.358 35.4168 215.358 35.0181C215.358 34.6677 215.419 34.3416 215.552 34.0395C215.747 33.6167 216.026 33.2905 216.415 33.0368C216.804 32.7831 217.241 32.6622 217.727 32.6622V32.6501ZM220.096 36.9753C219.489 37.7243 218.699 38.1109 217.727 38.1109C216.755 38.1109 215.99 37.7485 215.358 37.0115V43.632C215.358 44.2844 215.589 44.8402 216.051 45.2993C216.512 45.7584 217.071 45.9879 217.727 45.9879C218.42 45.9879 219.003 45.7342 219.465 45.2389C219.89 44.8039 220.096 44.2603 220.096 43.6441V36.9874V36.9753ZM239.098 24.0121H234.494C234.81 24.29 235.065 24.6162 235.247 25.0149C235.453 25.4377 235.563 25.8847 235.563 26.368C235.563 26.5975 235.538 26.8149 235.502 27.0324C235.356 27.6365 234.858 28.4338 234.02 29.4124L223.231 42.0252L223.195 42.0856C222.818 42.5205 222.623 43.0401 222.623 43.62V43.777C222.66 44.4294 222.939 44.973 223.45 45.408C223.887 45.7825 224.397 45.9758 224.968 45.9758H230.181C229.804 45.6375 229.512 45.2389 229.33 44.7798C229.184 44.4053 229.111 44.0186 229.111 43.62C229.111 43.3662 229.148 43.1125 229.209 42.8709C229.354 42.3273 229.853 41.5661 230.691 40.5755L241.516 27.9022C241.893 27.4673 242.087 26.9479 242.087 26.368V26.3317C242.063 25.6189 241.796 25.0511 241.261 24.6041C241.261 24.5799 241.261 24.5678 241.225 24.5678C240.787 24.1933 240.277 24 239.706 24H239.11L239.098 24.0121ZM225.053 24.0121H232.623C233.206 24.0363 233.716 24.2537 234.141 24.6765C234.603 25.1356 234.834 25.7035 234.834 26.368C234.834 26.8512 234.712 27.2861 234.457 27.6848C233.995 28.3734 233.352 28.7237 232.538 28.7237H224.993C224.385 28.7237 223.851 28.5184 223.389 28.0956C222.879 27.6365 222.636 27.0566 222.636 26.368C222.636 25.7156 222.879 25.1598 223.365 24.6765C223.802 24.2416 224.349 24.0121 225.005 24.0121H225.066H225.053ZM232.088 41.2762H239.694C240.277 41.2762 240.787 41.4695 241.212 41.844C241.759 42.3031 242.039 42.8951 242.063 43.5958V43.6562C242.039 44.3449 241.783 44.9248 241.273 45.3838C240.836 45.7825 240.301 45.9758 239.694 45.9758H232.052C231.165 45.9517 230.521 45.5409 230.095 44.7556C229.889 44.4052 229.78 44.0186 229.78 43.62C229.78 43.028 229.974 42.5205 230.351 42.0856C230.812 41.542 231.395 41.2641 232.088 41.2641V41.2762ZM246.923 24.0121H246.886C246.169 24.0121 245.586 24.29 245.125 24.8578C244.748 25.2806 244.553 25.7639 244.553 26.3317V38.3163C244.578 38.7754 244.724 39.1982 244.991 39.5728C245.453 40.2251 246.096 40.5513 246.91 40.5513C247.457 40.5513 247.955 40.3821 248.393 40.0439C248.964 39.6089 249.255 39.017 249.28 38.2922V37.3498H258.999C259.57 37.3498 260.068 37.1686 260.518 36.8182C261.089 36.3349 261.368 35.7309 261.368 34.9939C261.368 34.414 261.174 33.8946 260.797 33.4596C260.311 32.916 259.716 32.6381 258.999 32.6381H249.28V26.3559C249.28 25.9209 249.365 25.486 249.535 25.0632C249.729 24.6403 249.997 24.29 250.361 24H246.923V24.0121ZM252.22 24.0121H261.66C262.268 24.0363 262.79 24.2416 263.203 24.6403C263.726 25.0994 263.993 25.6793 263.993 26.368C263.993 26.972 263.786 27.5036 263.361 27.9385C262.924 28.4459 262.365 28.6996 261.684 28.7237H252.281C251.539 28.7237 250.944 28.4338 250.482 27.8418C250.142 27.4069 249.972 26.9116 249.972 26.368C249.972 25.8847 250.106 25.4377 250.385 25.0149C250.823 24.3625 251.442 24.0363 252.22 24.0121ZM246.923 41.2762H261.721C262.353 41.3003 262.887 41.542 263.325 42.0011C263.762 42.4602 263.993 43.0038 263.993 43.632C263.993 44.2603 263.762 44.8402 263.3 45.2993C262.839 45.7584 262.28 45.9879 261.624 45.9879H246.91C246.254 45.9879 245.696 45.7584 245.21 45.2993C244.772 44.8402 244.541 44.2844 244.541 43.632V40.213C245.149 40.9258 245.939 41.2762 246.91 41.2762H246.923ZM268.853 24.0121H268.816C268.099 24.0121 267.516 24.29 267.055 24.8336C266.678 25.2685 266.483 25.7759 266.483 26.3438V29.7023C266.508 30.246 266.702 30.7292 267.079 31.1521C267.54 31.6716 268.136 31.9374 268.84 31.9374C269.448 31.9374 269.983 31.7441 270.42 31.3454C270.942 30.8863 271.21 30.3185 271.21 29.654V28.7479H277.831C278.293 28.7721 278.694 28.9292 279.034 29.2191C279.496 29.6178 279.727 30.1131 279.727 30.693C279.727 31.3575 279.459 31.9011 278.937 32.2877C278.621 32.5173 278.269 32.6381 277.868 32.6622H269.946L268.84 32.626C268.355 32.626 267.905 32.5173 267.48 32.3119C267.079 32.1186 266.739 31.877 266.471 31.5629V43.6441C266.471 44.2965 266.69 44.8523 267.14 45.3114C267.626 45.7704 268.197 46 268.84 46C269.533 46 270.116 45.7463 270.578 45.251C271.003 44.816 271.21 44.2724 271.21 43.6562V37.374H275.316L275.438 37.5672L275.474 37.6035L280.431 43.5958C280.455 42.7138 280.784 41.989 281.44 41.397C282.023 40.8534 282.727 40.5755 283.554 40.5755C283.748 40.5755 283.918 40.5755 284.088 40.6117L280.808 36.6611C281.476 36.3108 282.084 35.8517 282.606 35.308C283.845 34.0153 284.465 32.4689 284.465 30.693C284.465 28.917 283.894 27.5277 282.764 26.2713C281.525 24.894 279.982 24.1449 278.123 24.0483H268.84L268.853 24.0121ZM283.566 41.2762C284.137 41.2762 284.635 41.4574 285.084 41.8078C285.206 41.9165 285.364 42.0856 285.522 42.3152C285.789 42.7138 285.935 43.1488 285.935 43.632C285.935 44.369 285.643 44.9731 285.048 45.4563C284.623 45.8067 284.137 45.9879 283.566 45.9879H283.311C282.849 45.9275 282.436 45.7463 282.084 45.4563C281.792 45.2268 281.573 44.961 281.415 44.671C281.27 44.3569 281.197 44.0066 281.197 43.632C281.197 42.9676 281.427 42.3997 281.889 41.9406C282.351 41.5057 282.91 41.2762 283.566 41.2762ZM293.164 43.632C293.164 44.1515 293.006 44.6227 292.69 45.0455C292.228 45.6738 291.597 45.9879 290.795 45.9879C290.054 45.9879 289.458 45.71 288.997 45.1422C288.62 44.7194 288.426 44.224 288.426 43.632C288.426 43.0884 288.596 42.6051 288.936 42.1823C289.422 41.5782 290.042 41.2762 290.795 41.2762C291.366 41.2762 291.852 41.4574 292.277 41.8078C292.86 42.2669 293.164 42.8709 293.164 43.632ZM298.06 24.0121H298.024C297.307 24.0121 296.724 24.29 296.262 24.8578C295.885 25.2806 295.691 25.776 295.691 26.368V29.6903C295.715 30.2581 295.91 30.7413 296.286 31.14C296.748 31.6595 297.343 31.9253 298.048 31.9253C298.656 31.9253 299.19 31.732 299.628 31.3333C300.15 30.8742 300.417 30.3064 300.417 29.6419V28.7358H308.497C308.958 28.76 309.359 28.9171 309.7 29.207C310.161 29.6057 310.392 30.101 310.392 30.6809C310.392 31.3454 310.125 31.889 309.602 32.2756C309.286 32.5052 308.934 32.626 308.533 32.6501H299.166L298.06 32.6139C297.574 32.6139 297.125 32.5052 296.699 32.2998C296.299 32.1307 295.958 31.877 295.691 31.5508V43.632C295.691 44.2844 295.91 44.8402 296.359 45.2993C296.845 45.7584 297.416 45.9879 298.06 45.9879C298.753 45.9879 299.336 45.7342 299.798 45.2389C300.223 44.8039 300.429 44.2603 300.429 43.6441V37.3619H308.472C310.368 37.3377 311.959 36.649 313.271 35.2959C314.511 34.0033 315.13 32.4568 315.13 30.6809C315.13 28.905 314.559 27.5156 313.429 26.2592C312.19 24.8819 310.647 24.145 308.788 24.0604C308.667 24.0362 308.497 24.0242 308.278 24.0242H298.048L298.06 24.0121ZM319.99 24.0121H319.954C319.237 24.0121 318.654 24.29 318.192 24.8336C317.815 25.2685 317.621 25.7759 317.621 26.3438V29.7023C317.645 30.246 317.84 30.7292 318.216 31.1521C318.678 31.6716 319.273 31.9374 319.978 31.9374C320.586 31.9374 321.12 31.7441 321.558 31.3454C322.08 30.8863 322.347 30.3185 322.347 29.654V28.7479H328.969C329.43 28.7721 329.831 28.9292 330.172 29.2191C330.633 29.6178 330.864 30.1131 330.864 30.693C330.864 31.3575 330.597 31.9011 330.074 32.2877C329.758 32.5173 329.406 32.6381 329.005 32.6622H321.084L319.978 32.626C319.492 32.626 319.043 32.5173 318.617 32.3119C318.216 32.1186 317.876 31.877 317.609 31.5629V43.6441C317.609 44.2965 317.828 44.8523 318.277 45.3114C318.763 45.7704 319.334 46 319.978 46C320.671 46 321.254 45.7463 321.715 45.251C322.141 44.816 322.347 44.2724 322.347 43.6562V37.374H326.454L326.575 37.5672L326.612 37.6035L331.569 43.5958C331.593 42.7138 331.921 41.989 332.577 41.397C333.16 40.8534 333.865 40.5755 334.691 40.5755C334.886 40.5755 335.056 40.5755 335.226 40.6117L331.945 36.6611C332.614 36.3108 333.221 35.8517 333.744 35.308C334.983 34.0153 335.602 32.4689 335.602 30.693C335.602 28.917 335.031 27.5277 333.901 26.2713C332.662 24.894 331.119 24.1449 329.26 24.0483H319.978L319.99 24.0121ZM334.703 41.2762C335.274 41.2762 335.773 41.4574 336.222 41.8078C336.344 41.9165 336.501 42.0856 336.659 42.3152C336.939 42.7138 337.073 43.1488 337.073 43.632C337.073 44.369 336.781 44.9731 336.186 45.4563C335.76 45.8067 335.274 45.9879 334.703 45.9879H334.448C333.987 45.9275 333.573 45.7463 333.221 45.4563C332.93 45.2268 332.711 44.961 332.553 44.671C332.407 44.3569 332.334 44.0066 332.334 43.632C332.334 42.9676 332.565 42.3997 333.027 41.9406C333.488 41.5057 334.047 41.2762 334.703 41.2762ZM337.923 32.7347C338.215 32.4569 338.555 32.2515 338.931 32.1066C339.284 31.9616 339.66 31.889 340.037 31.889C340.523 31.889 340.985 32.0099 341.422 32.2394C341.932 32.4931 342.333 32.8435 342.649 33.3026C343.026 31.9616 343.779 30.8621 344.885 30.0044C346.002 29.1466 347.266 28.7237 348.675 28.7237C350.425 28.7237 351.907 29.3399 353.122 30.5601C354.337 31.7803 354.957 33.2663 354.957 35.006C354.957 36.7457 354.349 38.2196 353.122 39.4519C351.907 40.6721 350.413 41.2883 348.675 41.2883C347.266 41.2883 346.002 40.8654 344.873 40.0198C343.743 39.1741 342.989 38.0747 342.613 36.7095C342.382 37.0599 342.09 37.374 341.726 37.6156C341.203 37.9297 340.632 38.0867 340.025 38.0867C339.587 38.0867 339.15 38.0022 338.737 37.8331C338.421 37.6881 338.154 37.4947 337.911 37.2652C338.433 39.8023 339.709 41.8802 341.726 43.5233C343.743 45.1663 346.063 45.9879 348.663 45.9879C350.668 45.9879 352.503 45.4925 354.203 44.514C355.892 43.5354 357.229 42.1944 358.213 40.5151C359.197 38.8358 359.683 36.9994 359.683 35.006C359.683 33.0126 359.197 31.1883 358.213 29.497C357.229 27.8177 355.904 26.4766 354.203 25.4981C352.515 24.5195 350.668 24.0242 348.663 24.0242C346.075 24.0242 343.767 24.8457 341.75 26.4887C339.733 28.1318 338.445 30.2218 337.899 32.7468L337.923 32.7347ZM340.037 32.6381C340.754 32.6381 341.349 32.9039 341.835 33.4234C342.09 33.7133 342.26 34.0637 342.345 34.4623C342.382 34.6315 342.406 34.8127 342.406 34.9939C342.406 35.1993 342.382 35.4168 342.345 35.6222C342.26 35.9363 342.102 36.2262 341.872 36.5041C341.41 37.0719 340.802 37.3498 340.037 37.3498C339.272 37.3498 338.64 37.0599 338.178 36.4679C337.984 36.2383 337.85 35.9725 337.765 35.6826C337.704 35.4772 337.668 35.2597 337.668 35.0181C337.668 34.7644 337.704 34.5228 337.765 34.2933C337.874 33.9429 338.045 33.6288 338.3 33.3872C338.761 32.8797 339.344 32.6381 340.037 32.6381Z" fill="white"/>
<path d="M42.0045 64.0197C57.8432 60.3398 67.6997 44.5169 64.0198 28.6783C60.3398 12.8397 44.5169 2.98313 28.6783 6.66307C12.8397 10.343 2.98317 26.1659 6.66311 42.0045C10.343 57.8431 26.1659 67.6997 42.0045 64.0197Z" fill="white"/>
<path fill-rule="evenodd" clip-rule="evenodd" d="M52.672 11.9491C53.1512 11.9491 53.6134 12.0296 54.0417 12.1738C54.8601 12.8353 55.6446 13.5435 56.391 14.2856C56.4376 14.3323 56.4885 14.3831 56.5351 14.4298C56.7811 14.9641 56.9168 15.562 56.9168 16.1896C56.9168 17.271 56.5097 18.259 55.8439 19.0096C57.362 20.9136 58.6172 23.0339 59.5671 25.3153C60.8478 28.4067 61.556 31.7907 61.556 35.34C61.556 38.8893 60.8478 42.2733 59.5671 45.3647C58.2356 48.5748 56.2892 51.4626 53.8763 53.8797C51.4592 56.2969 48.5714 58.2433 45.3613 59.5706C42.2699 60.8512 38.8859 61.5594 35.3366 61.5594C31.7872 61.5594 28.4033 60.8512 25.3119 59.5706C22.1018 58.239 19.214 56.2926 16.7968 53.8797C14.3797 51.4626 12.4333 48.5748 11.106 45.3647C9.82536 42.2733 9.11719 38.8893 9.11719 35.34C9.11719 31.7907 9.82536 28.4067 11.106 25.3153C12.4375 22.1052 14.384 19.2174 16.7968 16.8003C19.214 14.3831 22.1018 12.4367 25.3119 11.1094C28.4033 9.82878 31.7872 9.12061 35.3366 9.12061C38.8859 9.12061 42.2699 9.82878 45.3613 11.1094C46.8327 11.7201 48.2321 12.4579 49.5552 13.3103C49.5933 13.2679 49.6315 13.2297 49.6739 13.1873C50.4414 12.4198 51.5016 11.9448 52.6762 11.9448L52.672 11.9491ZM48.7664 14.5231C44.8948 12.0212 40.2853 10.5709 35.3323 10.5709C31.9738 10.5709 28.7722 11.2366 25.8547 12.4452C22.8269 13.7004 20.096 15.5408 17.8103 17.8265C15.5247 20.1121 13.6843 22.8388 12.4291 25.8708C11.2205 28.7883 10.5547 31.99 10.5547 35.3485C10.5547 38.707 11.2205 41.9086 12.4291 44.8261C13.5359 47.4977 15.1006 49.936 17.0216 52.0436C17.7637 52.8832 18.5736 53.6635 19.4472 54.3674C23.7471 57.9591 29.2853 60.1261 35.3281 60.1261C38.6866 60.1261 41.8882 59.4603 44.8057 58.2518C47.8335 56.9965 50.5644 55.1561 52.8501 52.8705C55.1357 50.5848 56.9762 47.8581 58.2314 44.8261C59.4399 41.9086 60.1057 38.707 60.1057 35.3485C60.1057 31.99 59.4399 28.7883 58.2314 25.8708C57.3408 23.7166 56.1492 21.7151 54.7159 19.9171C54.1095 20.2521 53.4098 20.4429 52.6677 20.4429C52.1165 20.4429 51.5949 20.3369 51.1115 20.1503C52.9985 22.1094 54.5209 24.4163 55.581 26.9734C56.6496 29.5559 57.2433 32.3886 57.2433 35.3527C57.2433 38.3169 56.6539 41.1453 55.581 43.7321C54.47 46.4163 52.8416 48.8292 50.8231 50.8477C48.8046 52.8662 46.3917 54.4946 43.7074 55.6056C42.8339 55.9661 41.9349 56.2756 41.0104 56.5216C43.4742 55.2367 48.2364 51.9969 50.1064 50.1268C52.0359 48.1974 53.5879 45.899 54.6438 43.3462C55.6616 40.8867 56.2256 38.1854 56.2256 35.3527C56.2256 32.52 55.6616 29.8188 54.6438 27.3593C53.5879 24.8064 52.0317 22.5038 50.1064 20.5786C48.177 18.6492 45.8786 17.0971 43.3258 16.0412C40.8663 15.0235 38.165 14.4595 35.3323 14.4595C32.4996 14.4595 29.7984 15.0235 27.3389 16.0412C24.7861 17.0971 22.4834 18.6492 20.5582 20.5786C18.4507 22.6862 15.2745 27.7451 13.9429 30.5863C14.2186 29.3396 14.6045 28.1353 15.0837 26.9776C16.1947 24.2933 17.8231 21.8805 19.8416 19.862C21.8601 17.8434 24.273 16.2151 26.9572 15.104C29.5397 14.0354 32.3724 13.4417 35.3366 13.4417C38.3007 13.4417 41.1292 14.0312 43.7159 15.104C45.5902 15.8801 47.3331 16.9063 48.8979 18.1445C48.5968 17.5636 48.4314 16.902 48.4314 16.2023C48.4314 15.6087 48.5544 15.0447 48.7707 14.5316L48.7664 14.5231Z" fill="white"/>
<path fill-rule="evenodd" clip-rule="evenodd" d="M35.4567 15.4862C46.3592 15.4862 55.1965 24.3235 55.1965 35.226C55.1965 41.5147 52.2578 47.1165 47.6738 50.7295C49.599 47.6423 50.71 43.9997 50.71 40.0942C50.71 28.9796 41.6988 19.9685 30.5843 19.9685C26.6788 19.9685 23.0361 21.0837 19.949 23.0047C23.5619 18.4249 29.1637 15.4819 35.4525 15.4819L35.4567 15.4862ZM52.6776 13.0267C50.9348 13.0267 49.5184 14.4388 49.5184 16.1859C49.5184 17.933 50.9305 19.3451 52.6776 19.3451C54.4247 19.3451 55.8368 17.933 55.8368 16.1859C55.8368 14.4388 54.4247 13.0267 52.6776 13.0267ZM45.2566 54.0414C44.8071 53.2993 44.3746 52.5148 43.7852 51.3571C43.1915 50.1952 40.7065 52.3239 40.6768 50.1825C40.6472 48.041 39.1587 47.1462 39.1587 47.1462C41.3765 44.6485 42.6021 41.4257 42.6021 38.0841C42.6021 32.7834 39.5319 27.9619 34.7273 25.7187L35.2489 24.6373C34.5747 24.3108 33.875 24.0394 33.1626 23.8147L29.9143 34.2507L33.3958 23.0683C25.0589 20.7402 15.5218 27.6396 13.6687 32.1643C14.2921 27.241 17.8287 21.8725 19.8472 19.854C21.8657 17.8354 24.2786 16.2071 26.9629 15.096C29.5454 14.0274 32.3781 13.4338 35.3422 13.4338C38.3064 13.4338 41.1348 14.0232 43.7216 15.096C45.5959 15.8721 47.3388 16.8983 48.9035 18.1365V18.1281L48.8908 18.1068L48.8781 18.0814L48.8654 18.0517L48.8569 18.0348V18.0263L48.8399 17.9966V17.9881L48.8272 17.9669L48.8145 17.9415L48.8018 17.9118L48.7933 17.8948V17.8863L48.7763 17.8567V17.8482H48.7721L48.7509 17.8015L48.7381 17.7719L48.7297 17.7506L48.7169 17.7125V17.6998H48.7127L48.7 17.6573V17.6489L48.6915 17.6192L48.683 17.598V17.5895L48.6703 17.5598V17.5471L48.6618 17.5301L48.6533 17.5005L48.6449 17.4708L48.6364 17.4496V17.4411L48.6236 17.4114V17.3987L48.6152 17.3817L48.6067 17.352L48.5982 17.3223L48.5897 17.2969V17.2884L48.5812 17.2587V17.246L48.5728 17.229L48.5643 17.1994V17.1697L48.5516 17.1442L48.5431 17.1061V17.0891L48.5346 17.0721L48.5261 17.0425L48.5176 16.9873L48.5092 16.9365V16.9195L48.5007 16.8898V16.8601L48.4922 16.8347C48.488 16.8008 48.4837 16.7668 48.4795 16.7372V16.7075L48.471 16.6778V16.6227L48.4625 16.6099V16.5463L48.454 16.5166V16.4191L48.4455 16.4106V16.3555V16.135V16.0799V16.029V15.9696V15.9145V15.8594V15.8042H48.4498V15.7491H48.454V15.694H48.4583V15.6431H48.4625V15.6049L48.471 15.5837V15.5498L48.4795 15.5286V15.4947L48.488 15.4777V15.4438L48.4964 15.4268V15.4183L48.5049 15.3929V15.3674L48.5134 15.342V15.3166L48.5261 15.2911V15.2657L48.5388 15.2402V15.2148L48.5516 15.1893V15.1766L48.5643 15.1385V15.1257L48.5728 15.113L48.5812 15.0876V15.0748L48.5897 15.0621L48.5982 15.0367V15.024L48.6067 15.0112L48.6152 14.9858V14.9731L48.6236 14.9604L48.6321 14.9349V14.9222L48.6406 14.9095L48.6491 14.884V14.8755L48.6576 14.8628L48.6661 14.8374V14.8289L48.6745 14.8119L48.683 14.7865V14.778L48.6915 14.7611L48.7 14.7356V14.7271L48.7085 14.7102L48.7169 14.6847V14.6762L48.7254 14.6593L48.7339 14.6338V14.6253L48.7424 14.6084L48.7509 14.5829V14.5745L48.7593 14.5575L48.7678 14.5321L48.7763 14.5066C44.9047 12.0047 40.2952 10.5544 35.3422 10.5544C31.9837 10.5544 28.7821 11.2202 25.8646 12.4287C22.8368 13.6839 20.1059 15.5244 17.8202 17.81C15.5346 20.0957 13.6942 22.8224 12.4389 25.8544C11.2304 28.7719 10.5646 31.9735 10.5646 35.332C10.5646 38.6905 11.2304 41.8922 12.4389 44.8097C13.6942 47.8374 15.5346 50.5683 17.8202 52.854C22.3025 57.3363 28.4979 60.1096 35.3422 60.1096C38.7007 60.1096 41.9024 59.4438 44.8199 58.2353C47.8476 56.9801 50.5785 55.1397 52.8642 52.854C55.1499 50.5683 56.9903 47.8417 58.2455 44.8097C59.454 41.8922 60.1198 38.6905 60.1198 35.332C60.1198 31.9735 59.454 28.7719 58.2455 25.8544C57.355 23.7002 56.1634 21.6986 54.7301 19.9006L54.7046 19.9133L54.6749 19.9303L54.6622 19.9388L54.6452 19.9472L54.6156 19.9642L54.5859 19.9769L54.5562 19.9897L54.5265 20.0024H54.5223L54.4968 20.0151L54.4756 20.0278H54.4671L54.4375 20.0448H54.429L54.4078 20.0575L54.3781 20.0702L54.3484 20.0829L54.3187 20.0957L54.289 20.1084L54.2594 20.1211L54.2382 20.1296H54.2254L54.1958 20.1466H54.1873L54.1618 20.1593L54.1364 20.1678H54.1321L54.1025 20.1805L54.0728 20.1932L54.0431 20.2017L54.0134 20.2144H53.9964L53.9837 20.2229L53.954 20.2314L53.9244 20.2398L53.9031 20.2483H53.8947L53.8607 20.2611H53.8523L53.8311 20.2695L53.8056 20.278H53.8014L53.7675 20.2865H53.7547L53.7378 20.295L53.7038 20.3035L53.6699 20.3119H53.6487L53.636 20.3204L53.6021 20.3289H53.5978L53.5724 20.3374H53.5469L53.5385 20.3459L53.5045 20.3544H53.4706L53.4409 20.3671L53.407 20.3755H53.39L53.3476 20.384H53.3349L53.3052 20.3925H53.2713L53.2374 20.401H53.2035L53.178 20.4095H53.1229L53.1017 20.418H53.0338L53.0169 20.4264H52.9617L52.9151 20.4349H52.385L52.3638 20.4264H52.3087L52.2833 20.418H52.2324L52.2069 20.4095H52.156L52.1476 20.401H52.1306L52.0543 20.3883H52.0288L52.0034 20.3798H51.9779L51.9525 20.3713H51.927L51.9016 20.3628H51.8762L51.8507 20.3544H51.821L51.7998 20.3459H51.7744L51.7659 20.3374H51.7489L51.7235 20.3289H51.6981L51.6726 20.3162H51.6472L51.6217 20.3035H51.5963L51.5708 20.2907H51.5496V20.2823L51.52 20.2738H51.4988V20.2653L51.4733 20.2568L51.4351 20.2441L51.4097 20.2356H51.4055L51.3885 20.2271L51.3673 20.2187L51.3461 20.2102L51.3249 20.2017H51.3122L51.2994 20.1932L51.2782 20.1847H51.2655L51.257 20.1762L51.2358 20.1678L51.2146 20.1593L51.1934 20.1508L51.1722 20.1423L51.151 20.1338L51.1298 20.1254C53.0169 22.0845 54.5392 24.3914 55.5994 26.9484C56.668 29.5309 57.2617 32.3636 57.2617 35.3278C57.2617 38.2919 56.6722 41.1204 55.5994 43.7071C53.7759 48.1088 49.9382 52.5657 45.2694 54.0244L45.2566 54.0414ZM36.5253 33.5849C36.9706 34.3228 37.2802 35.1242 37.4752 35.9639C37.6788 36.8544 37.7466 37.7873 37.6957 38.7372C37.6703 39.1867 38.0138 39.5683 38.4633 39.5938C38.9128 39.6192 39.2944 39.2757 39.3199 38.8262C39.3792 37.7322 39.2987 36.6508 39.0612 35.6077C38.8322 34.6026 38.4548 33.6358 37.9205 32.7495C37.6915 32.3636 37.1911 32.2406 36.8052 32.4696C36.4193 32.6986 36.2963 33.199 36.5253 33.5849ZM37.3056 41.1331C37.4201 40.7006 37.8653 40.4419 38.2979 40.5564C38.7304 40.6709 38.9891 41.1161 38.8746 41.5487C38.6032 42.5834 38.2131 43.6011 37.7169 44.5679L38.4378 44.7969C39.0018 43.9955 39.4598 43.1304 39.8075 42.2229C40.3037 40.9211 40.5623 39.5217 40.5623 38.0926C40.5623 35.8282 39.9135 33.6739 38.7516 31.8505C37.9374 30.5741 36.8731 29.4546 35.6009 28.5725L31.3137 37.482C31.3985 37.6474 31.4791 37.8212 31.5469 37.9993C31.7929 38.6227 31.9243 39.2927 31.9243 39.9881C31.9243 40.9041 31.6953 41.7692 31.2925 42.5282L36.1437 44.0718L36.1861 43.9912C36.6695 43.0795 37.0469 42.1169 37.3014 41.1416L37.3056 41.1331ZM52.6691 11.9538H52.8897L52.9109 11.9623H52.9957L53.0423 11.9708H53.1017L53.1186 11.9792H53.1695L53.195 11.9877H53.2035L53.2586 11.9962H53.301L53.3137 12.0047H53.3264L53.3646 12.0132H53.3773L53.4028 12.0216H53.4282L53.4664 12.0344H53.4791L53.5045 12.0429H53.53L53.5554 12.0513H53.5809L53.6063 12.064H53.6318L53.6572 12.0768H53.6742L53.725 12.0937H53.7293L53.7547 12.1022H53.7759V12.1107L53.8056 12.1192H53.8268V12.1277L53.8565 12.1361H53.8777V12.1446L53.9074 12.1531L53.9286 12.1616L53.954 12.1701L53.9752 12.1786L54.0007 12.187L54.0261 12.1955L54.0516 12.204L54.077 12.2125L54.1025 12.2209L54.1279 12.2294L54.1491 12.2379L54.1745 12.2464H54.183L54.2212 12.2634L54.2594 12.2803H54.2678L54.289 12.293C52.0288 10.4314 49.493 8.90059 46.7493 7.76412C43.2339 6.30961 39.375 5.50391 35.3253 5.50391C31.2755 5.50391 27.4208 6.30961 23.9012 7.76412C20.2501 9.278 16.9594 11.4958 14.2073 14.2522C11.4509 17.0085 9.23308 20.295 7.7192 23.9461C6.26469 27.4615 5.45898 31.3204 5.45898 35.3702C5.45898 43.6181 8.80055 51.0815 14.2073 56.4882C16.9636 59.2445 20.2501 61.4623 23.9012 62.9762C27.4166 64.4307 31.2755 65.2364 35.3253 65.2364C39.375 65.2364 43.2297 64.4307 46.7493 62.9762C50.4004 61.4623 53.6869 59.2445 56.4432 56.4882C59.1996 53.7318 61.4174 50.4454 62.9313 46.7942C64.3858 43.2788 65.1915 39.4199 65.1915 35.3702C65.1915 27.1223 61.85 19.6589 56.4432 14.2522L56.4051 14.214L56.4178 14.2395L56.4305 14.2734L56.439 14.2861L56.4475 14.2988L56.4602 14.3285L56.4899 14.3836L56.5026 14.4133V14.4218L56.5153 14.443L56.5281 14.4727L56.5408 14.5024L56.5789 14.5914L56.5874 14.6169L56.6001 14.6508V14.6635L56.6129 14.6805L56.6256 14.7102L56.6468 14.7695L56.6595 14.7992V14.8077L56.668 14.8289L56.6765 14.8543L56.685 14.8883L56.6934 14.9179L56.7019 14.9476L56.7104 14.9773L56.7189 15.007L56.7274 15.0367V15.0494L56.7358 15.0706L56.7443 15.1003L56.7528 15.13V15.1512L56.7613 15.1639L56.7698 15.1936V15.2021L56.7783 15.2275L56.7867 15.253L56.7952 15.2911L56.8037 15.3208L56.8122 15.3547L56.8207 15.4014V15.4183L56.8291 15.4523V15.465L56.8376 15.5159V15.554L56.8461 15.571V15.5837L56.8546 15.6176V15.6516L56.8631 15.677V15.7321L56.8715 15.7491V15.783V15.8509L56.88 15.8848V15.9484H56.8843V16.0035V16.0544V16.2749V16.4488L56.8758 16.4912V16.5548L56.8673 16.593V16.6227V16.6735L56.8588 16.7117V16.7244L56.8503 16.7668V16.7753L56.8419 16.822L56.8334 16.8728L56.8249 16.9195L56.8164 16.9661V16.9746L56.8079 17.017V17.0298L56.7994 17.0679V17.0849L56.791 17.1188V17.1273L56.7825 17.1654L56.774 17.2036V17.2121L56.7655 17.2375L56.757 17.2799V17.2884L56.7486 17.3054L56.7401 17.3393V17.352L56.7274 17.3902V17.3987L56.7146 17.4453L56.7019 17.492L56.6892 17.5386L56.6765 17.5853V17.5937L56.6595 17.6319V17.6446L56.6426 17.6786V17.6913L56.6256 17.721L56.6171 17.7379L56.6086 17.7634L56.6001 17.7846L56.5917 17.8058L56.5832 17.8312L56.5747 17.8482L56.562 17.8779V17.8948L56.5535 17.9033L56.5365 17.9415L56.5196 17.9754V17.9839L56.4984 18.022L56.4772 18.0687L56.456 18.1111L56.4348 18.1535V18.162L56.4136 18.1959V18.2044L56.3924 18.2341L56.3839 18.2468L56.3669 18.2765L56.3584 18.2934L56.3457 18.3189L56.3245 18.357L56.3118 18.3867L56.3033 18.4037V18.4122L56.2524 18.4843L56.2312 18.5182V18.5267L56.2015 18.5606L56.1761 18.603L56.1506 18.6412L56.1252 18.6793L56.104 18.7175L56.0955 18.726L56.0743 18.7557L56.0658 18.7684L56.0446 18.7938L56.0192 18.8277L56.0065 18.8489L55.9895 18.8659L55.9725 18.8871L55.9598 18.9041L55.9386 18.9295L55.9301 18.9422L55.9089 18.9677L55.9005 18.9762L55.875 19.0058V19.0143L55.8411 19.0483C57.3592 20.9565 58.6144 23.0768 59.5643 25.3582C60.8449 28.4496 61.5531 31.8336 61.5531 35.3829C61.5531 38.9323 60.8449 42.3162 59.5643 45.4076C58.2328 48.6177 56.2863 51.5055 53.8735 53.9226C51.4563 56.3398 48.5685 58.2862 45.3584 59.6135C42.2671 60.8941 38.8831 61.6023 35.3337 61.6023C31.7844 61.6023 28.4004 60.8941 25.309 59.6135C22.0989 58.2819 19.2111 56.3355 16.794 53.9226C14.3769 51.5055 12.4305 48.6177 11.1032 45.4076C9.82252 42.3162 9.11435 38.9323 9.11435 35.3829C9.11435 31.8336 9.82252 28.4496 11.1032 25.3582C12.4347 22.1481 14.3811 19.2603 16.794 16.8432C19.2111 14.426 22.0989 12.4796 25.309 11.1523C28.4004 9.87168 31.7844 9.16351 35.3337 9.16351C38.8831 9.16351 42.2671 9.87168 45.3584 11.1523C46.8299 11.763 48.2293 12.5008 49.5523 13.3532H49.5566V13.3447H49.5651V13.3362H49.5735V13.3277H49.582V13.3193H49.5905V13.3108H49.599V13.3023H49.6075V13.2938H49.6159V13.2853H49.6244V13.2769H49.6329V13.2684H49.6414V13.2599H49.6499V13.2514H49.6583V13.2429H49.6668V13.2344H49.6753V13.226H49.6838V13.2175C50.4556 12.4499 51.5157 11.975 52.6861 11.975L52.6691 11.9538Z" fill="#111111"/>
<path fill-rule="evenodd" clip-rule="evenodd" d="M25.7879 38.0753L26.0762 37.4731C26.0042 37.4647 25.9321 37.4647 25.86 37.4647C25.6267 37.4647 25.3978 37.4986 25.1815 37.5622C24.9652 37.6258 24.7532 37.7191 24.5581 37.8463C24.4394 37.9226 24.2825 37.8887 24.2062 37.77C24.1298 37.6512 24.1638 37.4943 24.2825 37.418C24.5157 37.2696 24.7702 37.1509 25.0373 37.0745C25.3045 36.9982 25.5801 36.9558 25.8557 36.9558C26.0084 36.9558 26.1568 36.9685 26.3052 36.9897L26.5894 36.4003C26.3222 36.3367 26.0423 36.3027 25.754 36.3027C25.4062 36.3027 25.0712 36.3494 24.749 36.4469C24.4267 36.5402 24.1171 36.6844 23.8287 36.8667C23.5913 37.0194 23.2775 36.9516 23.1291 36.7141C22.9764 36.4766 23.0442 36.1628 23.2817 36.0144C23.6506 35.7769 24.0493 35.5988 24.4691 35.4758C24.8889 35.3529 25.3214 35.2893 25.7582 35.2893C26.195 35.2893 26.636 35.3529 27.0431 35.4716L32.9926 23.1273C33.1877 22.7245 33.6711 22.5549 34.0782 22.7499C34.481 22.945 34.6507 23.4326 34.4556 23.8355L28.4976 36.201C28.6757 36.3367 28.8453 36.4809 29.0065 36.642C29.8376 37.4731 30.3507 38.6223 30.3507 39.8903C30.3507 41.1582 29.8376 42.3074 29.0065 43.1385C28.1753 43.9697 27.0261 44.4828 25.7582 44.4828C24.9483 44.4828 24.168 44.2665 23.4853 43.8806C22.8025 43.4905 22.2216 42.9307 21.806 42.2311C21.6618 41.9893 21.7424 41.6798 21.9841 41.5356C22.2258 41.3914 22.5354 41.472 22.6796 41.7137C23.0018 42.2565 23.4556 42.6933 23.9857 42.9986C24.5157 43.2997 25.1221 43.4651 25.7582 43.4651C26.7463 43.4651 27.6368 43.0664 28.2856 42.4176C28.9301 41.7731 29.333 40.8783 29.333 39.8903C29.333 38.9022 28.9344 38.0117 28.2856 37.3629C28.2092 37.2866 28.1287 37.2145 28.0439 37.1424L27.7767 37.6936C27.8234 37.7361 27.8742 37.7785 27.9166 37.8251C28.4467 38.3552 28.7732 39.0845 28.7732 39.8903C28.7732 40.696 28.4467 41.4253 27.9166 41.9554C27.3866 42.4855 26.6572 42.812 25.8515 42.812C25.3384 42.812 24.8422 42.6763 24.4055 42.4304C23.9729 42.1844 23.5998 41.824 23.3368 41.3829C23.2648 41.2642 23.3072 41.1073 23.4259 41.0352C23.5446 40.9631 23.7015 41.0055 23.7736 41.1243C23.9899 41.4889 24.2952 41.7858 24.6514 41.9893C25.0076 42.1929 25.419 42.3031 25.8473 42.3031C26.513 42.3031 27.1152 42.0317 27.552 41.5992C27.9887 41.1624 28.2559 40.5603 28.2559 39.8945C28.2559 39.2287 27.9845 38.6266 27.552 38.1898L27.5392 38.1771L27.2382 38.8004C27.4714 39.1015 27.6071 39.4832 27.6071 39.8945C27.6071 40.8868 26.8014 41.6925 25.8091 41.6925C24.8168 41.6925 24.0111 40.8868 24.0111 39.8945C24.0111 38.9022 24.7998 38.1135 25.7752 38.0965L25.7879 38.0753ZM23.4556 40.0556V39.9666L23.4471 39.8775C23.4471 39.6697 23.4725 39.4662 23.5234 39.2669C23.5743 39.0718 23.6506 38.881 23.7524 38.6987C23.8203 38.5757 23.7779 38.423 23.6549 38.3509C23.5319 38.2831 23.3792 38.3255 23.3072 38.4485C23.1842 38.6647 23.0909 38.898 23.0315 39.1397C22.9679 39.3814 22.9382 39.6273 22.9382 39.8775V39.9878L22.9467 40.0981C22.9552 40.238 23.0782 40.344 23.2181 40.3313C23.358 40.3228 23.4641 40.1998 23.4513 40.0599L23.4556 40.0556Z" fill="white"/>
<path fill-rule="evenodd" clip-rule="evenodd" d="M35.4569 15.4857C46.3594 15.4857 55.1968 24.323 55.1968 35.2255C55.1968 41.5142 52.258 47.116 47.674 50.729C49.5992 47.6419 50.7102 43.9992 50.7102 40.0937C50.7102 28.9792 41.6991 19.968 30.5845 19.968C26.679 19.968 23.0363 21.0832 19.9492 23.0042C23.5622 18.4244 29.164 15.4814 35.4527 15.4814L35.4569 15.4857Z" fill="#FFC800" stroke="#FFFF00" stroke-width="0.48" stroke-miterlimit="22.93"/>
<path d="M55.7631 17.473C56.5009 15.7025 55.6636 13.6691 53.8931 12.9314C52.1225 12.1937 50.0891 13.0309 49.3514 14.8015C48.6137 16.572 49.4509 18.6054 51.2215 19.3431C52.992 20.0808 55.0254 19.2436 55.7631 17.473Z" fill="white"/>
<path d="M17.8027 59.1127C18.8285 59.1127 19.66 58.2811 19.66 57.2553C19.66 56.2295 18.8285 55.3979 17.8027 55.3979C16.7769 55.3979 15.9453 56.2295 15.9453 57.2553C15.9453 58.2811 16.7769 59.1127 17.8027 59.1127Z" fill="white"/>
<path fill-rule="evenodd" clip-rule="evenodd" d="M52.5537 20.4853C54.9496 20.4853 56.9045 18.5304 56.9045 16.1345C56.9045 13.7386 54.9496 11.7837 52.5537 11.7837C50.1578 11.7837 48.2029 13.7386 48.2029 16.1345C48.2029 18.5304 50.1578 20.4853 52.5537 20.4853Z" fill="white"/>
<path fill-rule="evenodd" clip-rule="evenodd" d="M17.8026 59.5584C19.0706 59.5584 20.1052 58.5237 20.1052 57.2557C20.1052 55.9878 19.0706 54.9531 17.8026 54.9531C16.5347 54.9531 15.5 55.9878 15.5 57.2557C15.5 58.5237 16.5347 59.5584 17.8026 59.5584Z" fill="white"/>
</svg>
