<svg width="2997" height="2292" viewBox="0 0 2997 2292" fill="none" xmlns="http://www.w3.org/2000/svg">
<g filter="url(#filter0_f_1_3583)">
<ellipse cx="1498.07" cy="1111.8" rx="1436.07" ry="1049.8" fill="#ECD3FF" fill-opacity="0.5"/>
</g>
<g filter="url(#filter1_f_1_3583)">
<ellipse cx="1491.17" cy="1150.43" rx="1291.22" ry="1049.8" fill="#562EA2" fill-opacity="0.5"/>
</g>
<ellipse cx="1478.75" cy="1241.48" rx="1278.8" ry="1049.8" fill="url(#paint0_linear_1_3583)"/>
<path opacity="0.5" fill-rule="evenodd" clip-rule="evenodd" d="M1897.71 375.865C1894.51 399.096 1847.11 410.767 1791.81 401.911C1736.55 393.054 1694.34 367.009 1697.54 343.778C1700.74 320.547 1748.14 308.877 1803.43 317.733C1858.69 326.589 1900.91 352.635 1897.71 375.865ZM877.313 344.468C825.14 366.016 789.135 401.304 796.943 423.238C804.723 445.172 853.364 445.503 905.537 423.927C957.71 402.38 993.715 367.092 985.907 345.158C978.127 323.224 929.486 322.892 877.313 344.468ZM1053.86 382.432C1091.47 367.947 1126.18 368.996 1131.42 384.805C1136.66 400.614 1110.42 425.169 1072.84 439.681C1035.24 454.166 1000.53 453.118 995.288 437.309C990.046 421.5 1016.28 396.944 1053.86 382.432ZM1138.32 267.216C1109.9 276.872 1089.67 294.364 1093.18 306.311C1096.65 318.257 1122.53 320.133 1150.95 310.477C1179.37 300.82 1199.59 283.328 1196.09 271.382C1192.61 259.435 1166.73 257.559 1138.32 267.216ZM2050.5 403.925C2023.27 390.902 1997.36 389.633 1992.67 401.11C1987.98 412.56 2006.24 432.398 2033.48 445.42C2060.71 458.443 2086.62 459.712 2091.31 448.234C2096 436.784 2077.73 416.947 2050.5 403.925ZM1921.05 453.118C1887.41 448.924 1858.94 456.98 1857.42 471.134C1855.91 485.26 1881.95 500.131 1915.56 504.325C1949.19 508.519 1977.66 500.462 1979.18 486.309C1980.7 472.183 1954.65 457.311 1921.05 453.118Z" fill="url(#paint1_radial_1_3583)"/>
<path opacity="0.25" fill-rule="evenodd" clip-rule="evenodd" d="M1967.15 499.357C1956.74 493.784 1942.56 489.397 1926.64 487.411C1905.68 484.79 1886.72 486.942 1875.05 492.377C1885.45 497.95 1899.63 502.337 1915.55 504.324C1936.52 506.945 1955.48 504.793 1967.15 499.357Z" fill="url(#paint2_radial_1_3583)"/>
<path opacity="0.25" fill-rule="evenodd" clip-rule="evenodd" d="M1892.43 386.624C1876.73 371.422 1845.78 357.931 1809.03 352.027C1763.09 344.66 1722.64 351.475 1708.4 367.311C1724.1 382.514 1755.06 396.005 1791.81 401.909C1837.75 409.276 1878.19 402.461 1892.43 386.624Z" fill="url(#paint3_radial_1_3583)"/>
<path opacity="0.25" fill-rule="evenodd" clip-rule="evenodd" d="M2007.29 428.644C2014.24 434.659 2023.21 440.508 2033.47 445.419C2052.79 454.662 2071.41 457.945 2082.28 454.993C2075.33 448.978 2066.36 443.129 2056.1 438.218C2036.78 428.975 2018.16 425.692 2007.29 428.644Z" fill="url(#paint4_radial_1_3583)"/>
<path opacity="0.25" fill-rule="evenodd" clip-rule="evenodd" d="M807.009 434.246C825.467 444.316 864.369 440.95 905.534 423.927C941.649 409.001 969.984 387.536 981.434 368.444C962.976 358.373 924.074 361.739 882.91 378.762C846.794 393.689 818.459 415.154 807.009 434.246Z" fill="url(#paint5_radial_1_3583)"/>
<path opacity="0.25" fill-rule="evenodd" clip-rule="evenodd" d="M1143.91 301.51C1132.15 305.483 1121.86 310.835 1114.03 316.546C1124.29 317.07 1137.31 315.111 1150.94 310.476C1162.7 306.503 1172.99 301.151 1180.82 295.44C1170.56 294.915 1157.54 296.874 1143.91 301.51Z" fill="url(#paint6_radial_1_3583)"/>
<path opacity="0.25" fill-rule="evenodd" clip-rule="evenodd" d="M1009.69 448.177C1024.34 451.985 1047.9 449.253 1072.82 439.652C1094.47 431.292 1112.3 419.622 1122.59 408.172C1107.94 404.364 1084.38 407.096 1059.46 416.697C1037.8 425.057 1019.98 436.728 1009.69 448.177Z" fill="url(#paint7_radial_1_3583)"/>
<path opacity="0.5" fill-rule="evenodd" clip-rule="evenodd" d="M955.199 448.178C957.737 456.924 942.728 469.781 921.677 476.927C900.626 484.073 881.478 482.776 878.94 474.03C876.402 465.284 891.41 452.427 912.462 445.281C933.513 438.136 952.661 439.432 955.199 448.178Z" fill="url(#paint8_radial_1_3583)"/>
<path opacity="0.5" fill-rule="evenodd" clip-rule="evenodd" d="M1742.78 286.28C1741.63 295.357 1722.95 300.075 1701.1 296.819C1679.22 293.563 1662.44 283.576 1663.6 274.499C1664.76 265.422 1683.44 260.704 1705.29 263.959C1727.17 267.215 1743.94 277.203 1742.78 286.28Z" fill="url(#paint9_radial_1_3583)"/>
<path opacity="0.5" fill-rule="evenodd" clip-rule="evenodd" d="M2200.87 470.416C2196.45 478.224 2177.58 474.527 2158.74 462.139C2139.89 449.751 2128.19 433.362 2132.61 425.527C2137.02 417.719 2155.89 421.416 2174.74 433.804C2193.58 446.192 2205.28 462.58 2200.87 470.416Z" fill="url(#paint10_radial_1_3583)"/>
<path opacity="0.5" fill-rule="evenodd" clip-rule="evenodd" d="M1794.88 295.799C1794.38 299.661 1786.46 301.648 1777.17 300.268C1767.9 298.889 1760.75 294.64 1761.25 290.805C1761.74 286.942 1769.66 284.956 1778.96 286.335C1788.23 287.715 1795.38 291.964 1794.88 295.799Z" fill="url(#paint11_radial_1_3583)"/>
<path opacity="0.5" fill-rule="evenodd" clip-rule="evenodd" d="M1885.23 426.715C1884.74 430.577 1876.82 432.564 1867.52 431.184C1858.25 429.805 1851.11 425.556 1851.6 421.721C1852.1 417.858 1860.02 415.872 1869.32 417.251C1878.59 418.631 1885.73 422.88 1885.23 426.715Z" fill="url(#paint12_radial_1_3583)"/>
<path opacity="0.5" fill-rule="evenodd" clip-rule="evenodd" d="M1973.08 339.887C1972.58 343.75 1964.66 345.736 1955.39 344.357C1946.12 342.977 1938.98 338.728 1939.47 334.893C1939.97 331.031 1947.89 329.044 1957.16 330.424C1966.43 331.803 1973.58 336.052 1973.08 339.887Z" fill="url(#paint13_radial_1_3583)"/>
<path opacity="0.5" fill-rule="evenodd" clip-rule="evenodd" d="M2047.02 475.272C2045.7 478.887 2037.56 478.776 2028.84 475.024C2020.15 471.272 2014.16 465.312 2015.49 461.698C2016.81 458.084 2024.95 458.194 2033.67 461.946C2042.36 465.699 2048.35 471.658 2047.02 475.272Z" fill="url(#paint14_radial_1_3583)"/>
<path opacity="0.5" fill-rule="evenodd" clip-rule="evenodd" d="M2027.66 371.395C2026.14 377.409 2013.14 378.872 1998.63 374.623C1984.12 370.374 1973.58 362.069 1975.1 356.055C1976.62 350.04 1989.61 348.578 2004.12 352.827C2018.64 357.075 2029.17 365.38 2027.66 371.395Z" fill="url(#paint15_radial_1_3583)"/>
<path opacity="0.5" fill-rule="evenodd" clip-rule="evenodd" d="M1756.31 412.008C1755.4 418.161 1742.62 421.086 1727.75 418.492C1712.91 415.926 1701.63 408.836 1702.54 402.683C1703.45 396.53 1716.22 393.606 1731.09 396.199C1745.96 398.793 1757.22 405.856 1756.31 412.008Z" fill="url(#paint16_radial_1_3583)"/>
<path opacity="0.5" fill-rule="evenodd" clip-rule="evenodd" d="M1157.9 335.5C1159.2 340.936 1149.6 348.302 1136.49 351.917C1123.39 355.531 1111.69 354.069 1110.39 348.633C1109.1 343.198 1118.7 335.832 1131.8 332.217C1144.94 328.603 1156.61 330.065 1157.9 335.5Z" fill="url(#paint17_radial_1_3583)"/>
<path opacity="0.5" fill-rule="evenodd" clip-rule="evenodd" d="M1144.36 438.881C1145.65 444.317 1136.05 451.683 1122.95 455.297C1109.81 458.912 1098.14 457.449 1096.85 452.014C1095.55 446.579 1105.15 439.212 1118.26 435.598C1131.36 431.984 1143.06 433.446 1144.36 438.881Z" fill="url(#paint18_radial_1_3583)"/>
<path opacity="0.5" fill-rule="evenodd" clip-rule="evenodd" d="M1171.34 413.637C1172.14 417.03 1166.18 421.61 1157.99 423.873C1149.82 426.135 1142.54 425.225 1141.74 421.831C1140.94 418.437 1146.9 413.858 1155.09 411.595C1163.26 409.333 1170.54 410.243 1171.34 413.637Z" fill="url(#paint19_radial_1_3583)"/>
<path opacity="0.5" fill-rule="evenodd" clip-rule="evenodd" d="M1090.75 277.34C1091.55 280.734 1085.59 285.314 1077.4 287.576C1069.23 289.839 1061.95 288.928 1061.15 285.535C1060.35 282.141 1066.31 277.561 1074.5 275.299C1082.67 273.036 1089.95 273.947 1090.75 277.34Z" fill="url(#paint20_radial_1_3583)"/>
<path opacity="0.5" fill-rule="evenodd" clip-rule="evenodd" d="M987.26 413.637C988.06 417.03 982.101 421.61 973.906 423.873C965.74 426.135 958.456 425.225 957.656 421.831C956.856 418.437 962.815 413.858 971.009 411.595C979.204 409.333 986.46 410.243 987.26 413.637Z" fill="url(#paint21_radial_1_3583)"/>
<path opacity="0.5" fill-rule="evenodd" clip-rule="evenodd" d="M1271.63 321.264C1274.16 330.01 1259.16 342.867 1238.1 350.013C1217.05 357.159 1197.91 355.862 1195.37 347.116C1192.83 338.37 1207.84 325.513 1228.89 318.367C1249.94 311.222 1269.09 312.518 1271.63 321.264Z" fill="url(#paint22_radial_1_3583)"/>
<path opacity="0.5" fill-rule="evenodd" clip-rule="evenodd" d="M1303.72 286.722C1304.52 290.116 1298.56 294.696 1290.37 296.958C1282.2 299.221 1274.92 298.31 1274.12 294.917C1273.32 291.523 1279.28 286.943 1287.44 284.681C1295.61 282.418 1302.9 283.329 1303.7 286.722H1303.72Z" fill="url(#paint23_radial_1_3583)"/>
<path opacity="0.5" fill-rule="evenodd" clip-rule="evenodd" d="M992.998 303.856C993.798 307.25 987.839 311.83 979.645 314.092C971.45 316.354 964.194 315.444 963.394 312.05C962.594 308.657 968.553 304.077 976.748 301.814C984.914 299.552 992.198 300.462 992.998 303.856Z" fill="url(#paint24_radial_1_3583)"/>
<defs>
<filter id="filter0_f_1_3583" x="0" y="0" width="2996.13" height="2223.61" filterUnits="userSpaceOnUse" color-interpolation-filters="sRGB">
<feFlood flood-opacity="0" result="BackgroundImageFix"/>
<feBlend mode="normal" in="SourceGraphic" in2="BackgroundImageFix" result="shape"/>
<feGaussianBlur stdDeviation="31" result="effect1_foregroundBlur_1_3583"/>
</filter>
<filter id="filter1_f_1_3583" x="162.951" y="63.626" width="2656.43" height="2173.61" filterUnits="userSpaceOnUse" color-interpolation-filters="sRGB">
<feFlood flood-opacity="0" result="BackgroundImageFix"/>
<feBlend mode="normal" in="SourceGraphic" in2="BackgroundImageFix" result="shape"/>
<feGaussianBlur stdDeviation="18.5" result="effect1_foregroundBlur_1_3583"/>
</filter>
<linearGradient id="paint0_linear_1_3583" x1="1478.75" y1="191.673" x2="1478.75" y2="2291.28" gradientUnits="userSpaceOnUse">
<stop stop-color="#935AE2"/>
<stop offset="1" stop-color="white" stop-opacity="0"/>
</linearGradient>
<radialGradient id="paint1_radial_1_3583" cx="0" cy="0" r="1" gradientUnits="userSpaceOnUse" gradientTransform="translate(1377.7 130.597) rotate(-4.06) scale(648.368 602.982)">
<stop stop-color="#462683"/>
<stop offset="0.97" stop-color="#100928"/>
<stop offset="1" stop-color="#100928"/>
</radialGradient>
<radialGradient id="paint2_radial_1_3583" cx="0" cy="0" r="1" gradientUnits="userSpaceOnUse" gradientTransform="translate(1634.91 5.94946) rotate(-2.12) scale(599.588 557.617)">
<stop stop-color="#462683"/>
<stop offset="0.97" stop-color="#100928"/>
<stop offset="1" stop-color="#100928"/>
</radialGradient>
<radialGradient id="paint3_radial_1_3583" cx="0" cy="0" r="1" gradientUnits="userSpaceOnUse" gradientTransform="translate(1634.92 24.7145) rotate(-2.12) scale(599.588 557.617)">
<stop stop-color="#462683"/>
<stop offset="0.97" stop-color="#100928"/>
<stop offset="1" stop-color="#100928"/>
</radialGradient>
<radialGradient id="paint4_radial_1_3583" cx="0" cy="0" r="1" gradientUnits="userSpaceOnUse" gradientTransform="translate(1634.93 23.5039) rotate(-2.12) scale(599.588 557.617)">
<stop stop-color="#462683"/>
<stop offset="0.97" stop-color="#100928"/>
<stop offset="1" stop-color="#100928"/>
</radialGradient>
<radialGradient id="paint5_radial_1_3583" cx="0" cy="0" r="1" gradientUnits="userSpaceOnUse" gradientTransform="translate(1634.91 35.0264) rotate(-2.12) scale(599.616 557.643)">
<stop stop-color="#462683"/>
<stop offset="0.97" stop-color="#100928"/>
<stop offset="1" stop-color="#100928"/>
</radialGradient>
<radialGradient id="paint6_radial_1_3583" cx="0" cy="0" r="1" gradientUnits="userSpaceOnUse" gradientTransform="translate(1634.92 63.5316) rotate(-2.12) scale(599.588 557.617)">
<stop stop-color="#462683"/>
<stop offset="0.97" stop-color="#100928"/>
<stop offset="1" stop-color="#100928"/>
</radialGradient>
<radialGradient id="paint7_radial_1_3583" cx="0" cy="0" r="1" gradientUnits="userSpaceOnUse" gradientTransform="translate(1634.92 37.4469) rotate(-2.12) scale(599.616 557.643)">
<stop stop-color="#462683"/>
<stop offset="0.97" stop-color="#100928"/>
<stop offset="1" stop-color="#100928"/>
</radialGradient>
<radialGradient id="paint8_radial_1_3583" cx="0" cy="0" r="1" gradientUnits="userSpaceOnUse" gradientTransform="translate(903.68 351.085) rotate(-31.68) scale(182.95 170.144)">
<stop stop-color="#462683"/>
<stop offset="0.97" stop-color="#100928"/>
<stop offset="1" stop-color="#100928"/>
</radialGradient>
<radialGradient id="paint9_radial_1_3583" cx="0" cy="0" r="1" gradientUnits="userSpaceOnUse" gradientTransform="translate(1628.91 155.744) rotate(-31.68) scale(185.682 172.684)">
<stop stop-color="#462683"/>
<stop offset="0.97" stop-color="#100928"/>
<stop offset="1" stop-color="#100928"/>
</radialGradient>
<radialGradient id="paint10_radial_1_3583" cx="0" cy="0" r="1" gradientUnits="userSpaceOnUse" gradientTransform="translate(2007.4 319.257) rotate(-31.68) scale(191.255 177.867)">
<stop stop-color="#462683"/>
<stop offset="0.97" stop-color="#100928"/>
<stop offset="1" stop-color="#100928"/>
</radialGradient>
<radialGradient id="paint11_radial_1_3583" cx="0" cy="0" r="1" gradientUnits="userSpaceOnUse" gradientTransform="translate(1747.47 241.994) rotate(-31.6799) scale(78.8249 73.3071)">
<stop stop-color="#462683"/>
<stop offset="0.97" stop-color="#100928"/>
<stop offset="1" stop-color="#100928"/>
</radialGradient>
<radialGradient id="paint12_radial_1_3583" cx="0" cy="0" r="1" gradientUnits="userSpaceOnUse" gradientTransform="translate(1838.07 373.215) rotate(-31.6801) scale(78.825 73.3074)">
<stop stop-color="#462683"/>
<stop offset="0.97" stop-color="#100928"/>
<stop offset="1" stop-color="#100928"/>
</radialGradient>
<radialGradient id="paint13_radial_1_3583" cx="0" cy="0" r="1" gradientUnits="userSpaceOnUse" gradientTransform="translate(1925.74 286.159) rotate(-31.68) scale(78.7977 73.2818)">
<stop stop-color="#462683"/>
<stop offset="0.97" stop-color="#100928"/>
<stop offset="1" stop-color="#100928"/>
</radialGradient>
<radialGradient id="paint14_radial_1_3583" cx="0" cy="0" r="1" gradientUnits="userSpaceOnUse" gradientTransform="translate(1976.55 408.755) rotate(-31.68) scale(80.1492 74.5387)">
<stop stop-color="#462683"/>
<stop offset="0.97" stop-color="#100928"/>
<stop offset="1" stop-color="#100928"/>
</radialGradient>
<radialGradient id="paint15_radial_1_3583" cx="0" cy="0" r="1" gradientUnits="userSpaceOnUse" gradientTransform="translate(1930.09 267.864) rotate(-31.6801) scale(127.549 118.621)">
<stop stop-color="#462683"/>
<stop offset="0.97" stop-color="#100928"/>
<stop offset="1" stop-color="#100928"/>
</radialGradient>
<radialGradient id="paint16_radial_1_3583" cx="0" cy="0" r="1" gradientUnits="userSpaceOnUse" gradientTransform="translate(1675.83 320.806) rotate(-31.68) scale(126.639 117.774)">
<stop stop-color="#462683"/>
<stop offset="0.97" stop-color="#100928"/>
<stop offset="1" stop-color="#100928"/>
</radialGradient>
<radialGradient id="paint17_radial_1_3583" cx="0" cy="0" r="1" gradientUnits="userSpaceOnUse" gradientTransform="translate(1123.06 281.999) rotate(-31.68) scale(112.292 104.431)">
<stop stop-color="#462683"/>
<stop offset="0.97" stop-color="#100928"/>
<stop offset="1" stop-color="#100928"/>
</radialGradient>
<radialGradient id="paint18_radial_1_3583" cx="0" cy="0" r="1" gradientUnits="userSpaceOnUse" gradientTransform="translate(1109.68 385.623) rotate(-31.68) scale(112.292 104.431)">
<stop stop-color="#462683"/>
<stop offset="0.97" stop-color="#100928"/>
<stop offset="1" stop-color="#100928"/>
</radialGradient>
<radialGradient id="paint19_radial_1_3583" cx="0" cy="0" r="1" gradientUnits="userSpaceOnUse" gradientTransform="translate(1150.41 381.554) rotate(-31.6799) scale(69.9409 65.045)">
<stop stop-color="#462683"/>
<stop offset="0.97" stop-color="#100928"/>
<stop offset="1" stop-color="#100928"/>
</radialGradient>
<radialGradient id="paint20_radial_1_3583" cx="0" cy="0" r="1" gradientUnits="userSpaceOnUse" gradientTransform="translate(1069.59 244.924) rotate(-31.6799) scale(69.9409 65.045)">
<stop stop-color="#462683"/>
<stop offset="0.97" stop-color="#100928"/>
<stop offset="1" stop-color="#100928"/>
</radialGradient>
<radialGradient id="paint21_radial_1_3583" cx="0" cy="0" r="1" gradientUnits="userSpaceOnUse" gradientTransform="translate(966.333 381.553) rotate(-31.6799) scale(69.9409 65.045)">
<stop stop-color="#462683"/>
<stop offset="0.97" stop-color="#100928"/>
<stop offset="1" stop-color="#100928"/>
</radialGradient>
<radialGradient id="paint22_radial_1_3583" cx="0" cy="0" r="1" gradientUnits="userSpaceOnUse" gradientTransform="translate(1219.92 223.873) rotate(-31.68) scale(182.95 170.144)">
<stop stop-color="#462683"/>
<stop offset="0.97" stop-color="#100928"/>
<stop offset="1" stop-color="#100928"/>
</radialGradient>
<radialGradient id="paint23_radial_1_3583" cx="0" cy="0" r="1" gradientUnits="userSpaceOnUse" gradientTransform="translate(1282.61 254.326) rotate(-31.6799) scale(69.9409 65.045)">
<stop stop-color="#462683"/>
<stop offset="0.97" stop-color="#100928"/>
<stop offset="1" stop-color="#100928"/>
</radialGradient>
<radialGradient id="paint24_radial_1_3583" cx="0" cy="0" r="1" gradientUnits="userSpaceOnUse" gradientTransform="translate(971.872 271.502) rotate(-31.6801) scale(69.9409 65.0451)">
<stop stop-color="#462683"/>
<stop offset="0.97" stop-color="#100928"/>
<stop offset="1" stop-color="#100928"/>
</radialGradient>
</defs>
</svg>
